<?xml version="1.0" encoding="UTF-8" standalone="no"?>
<!DOCTYPE svg PUBLIC "-//W3C//DTD SVG 1.1//EN"
 "http://www.w3.org/Graphics/SVG/1.1/DTD/svg11.dtd">
<!-- Generated by graphviz version 2.38.0 (20140413.2041)
 -->
<!-- Title: Imagen_Reporte Pages: 1 -->
<svg width="396pt" height="211pt"
 viewBox="0.00 0.00 396.00 211.00" xmlns="http://www.w3.org/2000/svg" xmlns:xlink="http://www.w3.org/1999/xlink">
<g id="graph0" class="graph" transform="scale(1 1) rotate(0) translate(4 207)">
<title>Imagen_Reporte</title>
<polygon fill="white" stroke="none" points="-4,4 -4,-207 392,-207 392,4 -4,4"/>
<text text-anchor="middle" x="194" y="-7.8" font-family="Times New Roman,serif" font-size="14.00">((( Frutas )))</text>
<!-- Uvas -->
<g id="node1" class="node"><title>Uvas</title>
<polygon fill="#ba44e6" stroke="black" points="54,-113 0,-113 0,-77 54,-77 54,-113"/>
<text text-anchor="middle" x="27" y="-91.3" font-family="Times New Roman,serif" font-size="14.00">Uvas</text>
</g>
<!-- Arandanos -->
<g id="node2" class="node"><title>Arandanos</title>
<polygon fill="#ba44e6" stroke="black" points="167,-113 90,-113 90,-77 167,-77 167,-113"/>
<text text-anchor="middle" x="128.5" y="-91.3" font-family="Times New Roman,serif" font-size="14.00">Arandanos</text>
</g>
<!-- Uvas&#45;&gt;Arandanos -->
<g id="edge1" class="edge"><title>Uvas&#45;&gt;Arandanos</title>
<path fill="none" stroke="black" d="M54.1425,-95C62.0055,-95 70.8928,-95 79.6986,-95"/>
<polygon fill="black" stroke="black" points="79.9321,-98.5001 89.9321,-95 79.932,-91.5001 79.9321,-98.5001"/>
</g>
<!-- Disponible -->
<g id="node3" class="node"><title>Disponible</title>
<polygon fill="#e8e300" stroke="black" points="280,-113 203,-113 203,-77 280,-77 280,-113"/>
<text text-anchor="middle" x="241.5" y="-91.3" font-family="Times New Roman,serif" font-size="14.00">Disponible</text>
</g>
<!-- Arandanos&#45;&gt;Disponible -->
<g id="edge2" class="edge"><title>Arandanos&#45;&gt;Disponible</title>
<path fill="none" stroke="black" d="M167.08,-95C175.307,-95 184.123,-95 192.69,-95"/>
<polygon fill="black" stroke="black" points="192.959,-98.5001 202.959,-95 192.959,-91.5001 192.959,-98.5001"/>
</g>
<!-- Disponible&#45;&gt;Disponible -->
<g id="edge3" class="edge"><title>Disponible&#45;&gt;Disponible</title>
<path fill="none" stroke="black" d="M237.52,-113.153C236.908,-122.539 238.234,-131 241.5,-131 243.49,-131 244.76,-127.858 245.31,-123.28"/>
<polygon fill="black" stroke="black" points="248.812,-123.21 245.48,-113.153 241.812,-123.093 248.812,-123.21"/>
</g>
<!-- Disponible&#45;&gt;Disponible -->
<g id="edge10" class="edge"><title>Disponible&#45;&gt;Disponible</title>
<path fill="none" stroke="black" d="M234.829,-113.258C231.37,-130.402 233.594,-149 241.5,-149 247.862,-149 250.545,-136.958 249.547,-123.32"/>
<polygon fill="black" stroke="black" points="252.994,-122.691 248.171,-113.258 246.059,-123.64 252.994,-122.691"/>
</g>
<!-- Disponible&#45;&gt;Disponible -->
<g id="edge11" class="edge"><title>Disponible&#45;&gt;Disponible</title>
<path fill="none" stroke="black" d="M233.15,-113.078C225.762,-137.409 228.545,-167 241.5,-167 252.734,-167 256.32,-144.747 252.256,-122.969"/>
<polygon fill="black" stroke="black" points="255.614,-121.968 249.85,-113.078 248.812,-123.622 255.614,-121.968"/>
</g>
<!-- Disponible&#45;&gt;Disponible -->
<g id="edge15" class="edge"><title>Disponible&#45;&gt;Disponible</title>
<path fill="none" stroke="black" d="M231.938,-113.112C220.18,-144.24 223.367,-185 241.5,-185 257.791,-185 262.019,-152.099 254.182,-122.842"/>
<polygon fill="black" stroke="black" points="257.449,-121.566 251.062,-113.112 250.783,-123.704 257.449,-121.566"/>
</g>
<!-- Disponible&#45;&gt;Disponible -->
<g id="edge16" class="edge"><title>Disponible&#45;&gt;Disponible</title>
<path fill="none" stroke="black" d="M231.072,-113.058C214.606,-150.789 218.082,-203 241.5,-203 262.997,-203 267.69,-159.003 255.578,-122.599"/>
<polygon fill="black" stroke="black" points="258.77,-121.147 251.928,-113.058 252.232,-123.648 258.77,-121.147"/>
</g>
<!-- Sandias -->
<g id="node4" class="node"><title>Sandias</title>
<polygon fill="#df0b09" stroke="black" points="382,-167 322,-167 322,-131 382,-131 382,-167"/>
<text text-anchor="middle" x="352" y="-145.3" font-family="Times New Roman,serif" font-size="14.00">Sandias</text>
</g>
<!-- Disponible&#45;&gt;Sandias -->
<g id="edge4" class="edge"><title>Disponible&#45;&gt;Sandias</title>
<path fill="none" stroke="black" d="M280.144,-100.814C295.407,-107.315 312.611,-116.337 326.244,-125.138"/>
<polygon fill="black" stroke="black" points="324.399,-128.115 334.632,-130.86 328.344,-122.333 324.399,-128.115"/>
</g>
<!-- Disponible&#45;&gt;Sandias -->
<g id="edge5" class="edge"><title>Disponible&#45;&gt;Sandias</title>
<path fill="none" stroke="black" d="M278.931,-113.131C289.801,-118.541 301.744,-124.485 312.728,-129.952"/>
<polygon fill="black" stroke="black" points="311.172,-133.087 321.684,-134.41 314.291,-126.821 311.172,-133.087"/>
</g>
<!-- Manzanas -->
<g id="node5" class="node"><title>Manzanas</title>
<polygon fill="#df0b09" stroke="black" points="388,-113 316,-113 316,-77 388,-77 388,-113"/>
<text text-anchor="middle" x="352" y="-91.3" font-family="Times New Roman,serif" font-size="14.00">Manzanas</text>
</g>
<!-- Disponible&#45;&gt;Manzanas -->
<g id="edge7" class="edge"><title>Disponible&#45;&gt;Manzanas</title>
<path fill="none" stroke="black" d="M280.144,-82.0786C288.411,-81.4853 297.248,-81.3483 305.779,-81.6676"/>
<polygon fill="black" stroke="black" points="305.78,-85.174 315.973,-82.2834 306.203,-78.1867 305.78,-85.174"/>
</g>
<!-- piñas -->
<g id="node6" class="node"><title>piñas</title>
<polygon fill="#e8e300" stroke="black" points="379,-59 325,-59 325,-23 379,-23 379,-59"/>
<text text-anchor="middle" x="352" y="-37.3" font-family="Times New Roman,serif" font-size="14.00">piñas</text>
</g>
<!-- Disponible&#45;&gt;piñas -->
<g id="edge12" class="edge"><title>Disponible&#45;&gt;piñas</title>
<path fill="none" stroke="black" d="M258.979,-76.7799C273.821,-66.0234 296.15,-53.9866 315.096,-46.08"/>
<polygon fill="black" stroke="black" points="316.598,-49.251 324.638,-42.3506 314.05,-42.7313 316.598,-49.251"/>
</g>
<!-- Disponible&#45;&gt;piñas -->
<g id="edge13" class="edge"><title>Disponible&#45;&gt;piñas</title>
<path fill="none" stroke="black" d="M278.931,-76.8686C290.784,-70.9694 303.913,-64.4349 315.683,-58.5771"/>
<polygon fill="black" stroke="black" points="317.388,-61.6384 324.781,-54.0493 314.269,-55.3716 317.388,-61.6384"/>
</g>
<!-- Sandias&#45;&gt;Disponible -->
<g id="edge6" class="edge"><title>Sandias&#45;&gt;Disponible</title>
<path fill="none" stroke="black" d="M321.665,-146.546C304.687,-140.079 283.549,-129.364 267.388,-118.948"/>
<polygon fill="black" stroke="black" points="269.214,-115.957 258.979,-113.22 265.273,-121.742 269.214,-115.957"/>
</g>
<!-- Manzanas&#45;&gt;Disponible -->
<g id="edge8" class="edge"><title>Manzanas&#45;&gt;Disponible</title>
<path fill="none" stroke="black" d="M315.973,-95C307.747,-95 298.844,-95 290.169,-95"/>
<polygon fill="black" stroke="black" points="290.144,-91.5001 280.144,-95 290.143,-98.5001 290.144,-91.5001"/>
</g>
<!-- Manzanas&#45;&gt;Disponible -->
<g id="edge9" class="edge"><title>Manzanas&#45;&gt;Disponible</title>
<path fill="none" stroke="black" d="M315.973,-107.717C307.747,-108.415 298.844,-108.646 290.169,-108.411"/>
<polygon fill="black" stroke="black" points="290.302,-104.914 280.144,-107.921 289.961,-111.905 290.302,-104.914"/>
</g>
<!-- piñas&#45;&gt;Disponible -->
<g id="edge14" class="edge"><title>piñas&#45;&gt;Disponible</title>
<path fill="none" stroke="black" d="M334.632,-59.14C322.602,-67.875 305.611,-77.4644 289.49,-85.0051"/>
<polygon fill="black" stroke="black" points="287.843,-81.9079 280.144,-89.1863 290.701,-88.2977 287.843,-81.9079"/>
</g>
<!-- mango -->
<g id="node7" class="node"><title>mango</title>
<polygon fill="#e6660a" stroke="black" points="54,-167 0,-167 0,-131 54,-131 54,-167"/>
<text text-anchor="middle" x="27" y="-145.3" font-family="Times New Roman,serif" font-size="14.00">mango</text>
</g>
</g>
</svg>
