<?xml version="1.0" encoding="UTF-8" standalone="no"?>
<!DOCTYPE svg PUBLIC "-//W3C//DTD SVG 1.1//EN"
 "http://www.w3.org/Graphics/SVG/1.1/DTD/svg11.dtd">
<!-- Generated by graphviz version 2.38.0 (20140413.2041)
 -->
<!-- Title: Imagen_Reporte Pages: 1 -->
<svg width="576pt" height="109pt"
 viewBox="0.00 0.00 576.00 108.51" xmlns="http://www.w3.org/2000/svg" xmlns:xlink="http://www.w3.org/1999/xlink">
<g id="graph0" class="graph" transform="scale(0.819632 0.819632) rotate(0) translate(4 128.391)">
<title>Imagen_Reporte</title>
<polygon fill="white" stroke="none" points="-4,4 -4,-128.391 698.754,-128.391 698.754,4 -4,4"/>
<text text-anchor="middle" x="347.377" y="-7.8" font-family="Times New Roman,serif" font-size="14.00">&gt;&gt;&gt; personas &lt;&lt;&lt;</text>
<!-- Luis -->
<g id="node1" class="node"><title>Luis</title>
<ellipse fill="#376ce6" stroke="black" cx="26.6476" cy="-73.6955" rx="26.7961" ry="26.7961"/>
<text text-anchor="middle" x="26.6476" y="-69.9955" font-family="Times New Roman,serif" font-size="14.00">Luis</text>
</g>
<!-- Personas 1 -->
<g id="node2" class="node"><title>Personas 1</title>
<ellipse fill="#13da30" stroke="black" cx="139.991" cy="-73.6955" rx="50.8918" ry="50.8918"/>
<text text-anchor="middle" x="139.991" y="-69.9955" font-family="Times New Roman,serif" font-size="14.00">Personas 1</text>
</g>
<!-- Luis&#45;&gt;Personas 1 -->
<g id="edge1" class="edge"><title>Luis&#45;&gt;Personas 1</title>
<path fill="none" stroke="black" d="M52.9131,-67.9347C60.9233,-67.3538 70.145,-67.0288 79.5111,-66.9596"/>
<polygon fill="black" stroke="black" points="79.6718,-70.4599 89.6805,-66.9848 79.6892,-63.4599 79.6718,-70.4599"/>
</g>
<!-- Personas 1&#45;&gt;Luis -->
<g id="edge2" class="edge"><title>Personas 1&#45;&gt;Luis</title>
<path fill="none" stroke="black" d="M89.6805,-80.4062C80.7466,-80.5171 71.5913,-80.3934 63.1511,-80.0353"/>
<polygon fill="black" stroke="black" points="63.0948,-76.5267 52.9131,-79.4563 62.6995,-83.5155 63.0948,-76.5267"/>
</g>
<!-- Personas 2 -->
<g id="node3" class="node"><title>Personas 2</title>
<ellipse fill="#13da30" stroke="black" cx="277.382" cy="-73.6955" rx="50.8918" ry="50.8918"/>
<text text-anchor="middle" x="277.382" y="-69.9955" font-family="Times New Roman,serif" font-size="14.00">Personas 2</text>
</g>
<!-- Personas 1&#45;&gt;Personas 2 -->
<g id="edge3" class="edge"><title>Personas 1&#45;&gt;Personas 2</title>
<path fill="none" stroke="black" d="M190.637,-67.1634C199.099,-66.9545 207.967,-66.8958 216.657,-66.9873"/>
<polygon fill="black" stroke="black" points="216.682,-70.4881 226.742,-67.1636 216.805,-63.4892 216.682,-70.4881"/>
</g>
<!-- Personas 2&#45;&gt;Personas 1 -->
<g id="edge4" class="edge"><title>Personas 2&#45;&gt;Personas 1</title>
<path fill="none" stroke="black" d="M226.742,-80.2274C218.28,-80.4364 209.412,-80.4952 200.722,-80.4038"/>
<polygon fill="black" stroke="black" points="200.696,-76.9029 190.637,-80.2276 200.574,-83.9019 200.696,-76.9029"/>
</g>
<!-- Disponible -->
<g id="node4" class="node"><title>Disponible</title>
<ellipse fill="#ffffff" stroke="black" cx="414.123" cy="-73.6955" rx="50.0912" ry="50.0912"/>
<text text-anchor="middle" x="414.123" y="-69.9955" font-family="Times New Roman,serif" font-size="14.00">Disponible</text>
</g>
<!-- Personas 2&#45;&gt;Disponible -->
<g id="edge5" class="edge"><title>Personas 2&#45;&gt;Disponible</title>
<path fill="none" stroke="black" d="M327.789,-67.1634C336.319,-66.9519 345.262,-66.8943 354.017,-66.9909"/>
<polygon fill="black" stroke="black" points="354.11,-70.493 364.172,-67.1749 354.237,-63.4942 354.11,-70.493"/>
</g>
<!-- Disponible&#45;&gt;Personas 2 -->
<g id="edge6" class="edge"><title>Disponible&#45;&gt;Personas 2</title>
<path fill="none" stroke="black" d="M364.172,-80.2161C355.657,-80.4332 346.718,-80.4962 337.956,-80.4052"/>
<polygon fill="black" stroke="black" points="337.849,-76.9029 327.789,-80.2276 337.727,-83.9018 337.849,-76.9029"/>
</g>
<!-- Manuel -->
<g id="node5" class="node"><title>Manuel</title>
<ellipse fill="#df0b09" stroke="black" cx="537.215" cy="-73.6955" rx="37.0935" ry="37.0935"/>
<text text-anchor="middle" x="537.215" y="-69.9955" font-family="Times New Roman,serif" font-size="14.00">Manuel</text>
</g>
<!-- Disponible&#45;&gt;Manuel -->
<g id="edge7" class="edge"><title>Disponible&#45;&gt;Manuel</title>
<path fill="none" stroke="black" d="M464.027,-67.0577C472.706,-66.8885 481.718,-66.9107 490.311,-67.1241"/>
<polygon fill="black" stroke="black" points="490.419,-70.6299 500.535,-67.4793 490.662,-63.6341 490.419,-70.6299"/>
</g>
<!-- Manuel&#45;&gt;Disponible -->
<g id="edge8" class="edge"><title>Manuel&#45;&gt;Disponible</title>
<path fill="none" stroke="black" d="M500.535,-79.9117C492.227,-80.2888 483.164,-80.4661 474.146,-80.4436"/>
<polygon fill="black" stroke="black" points="474.064,-76.9426 464.027,-80.3333 473.988,-83.9422 474.064,-76.9426"/>
</g>
<!-- Adulto 1 -->
<g id="node6" class="node"><title>Adulto 1</title>
<ellipse fill="#ba44e6" stroke="black" cx="652.508" cy="-73.6955" rx="42.4939" ry="42.4939"/>
<text text-anchor="middle" x="652.508" y="-69.9955" font-family="Times New Roman,serif" font-size="14.00">Adulto 1</text>
</g>
<!-- Manuel&#45;&gt;Adulto 1 -->
<g id="edge9" class="edge"><title>Manuel&#45;&gt;Adulto 1</title>
<path fill="none" stroke="black" d="M573.751,-67.3807C582.238,-67.0147 591.462,-66.8796 600.494,-66.9752"/>
<polygon fill="black" stroke="black" points="600.49,-70.4758 610.559,-67.1813 600.633,-63.4773 600.49,-70.4758"/>
</g>
<!-- Adulto 1&#45;&gt;Manuel -->
<g id="edge10" class="edge"><title>Adulto 1&#45;&gt;Manuel</title>
<path fill="none" stroke="black" d="M610.559,-80.2097C601.899,-80.4762 592.707,-80.5168 583.884,-80.3316"/>
<polygon fill="black" stroke="black" points="583.857,-76.829 573.751,-80.0103 583.635,-83.8255 583.857,-76.829"/>
</g>
</g>
</svg>
