<?xml version="1.0" encoding="UTF-8" standalone="no"?>
<!DOCTYPE svg PUBLIC "-//W3C//DTD SVG 1.1//EN"
 "http://www.w3.org/Graphics/SVG/1.1/DTD/svg11.dtd">
<!-- Generated by graphviz version 2.38.0 (20140413.2041)
 -->
<!-- Title: Imagen_Reporte Pages: 1 -->
<svg width="466pt" height="175pt"
 viewBox="0.00 0.00 466.00 175.00" xmlns="http://www.w3.org/2000/svg" xmlns:xlink="http://www.w3.org/1999/xlink">
<g id="graph0" class="graph" transform="scale(1 1) rotate(0) translate(4 171)">
<title>Imagen_Reporte</title>
<polygon fill="white" stroke="none" points="-4,4 -4,-171 462,-171 462,4 -4,4"/>
<text text-anchor="middle" x="229" y="-7.8" font-family="Times New Roman,serif" font-size="14.00">Cara dado rubik!!!</text>
<!-- jose1 -->
<g id="node1" class="node"><title>jose1</title>
<polygon fill="#860100" stroke="black" points="54,-167 0,-167 0,-131 54,-131 54,-167"/>
<text text-anchor="middle" x="27" y="-145.3" font-family="Times New Roman,serif" font-size="14.00">jose1</text>
</g>
<!-- jose2 -->
<g id="node2" class="node"><title>jose2</title>
<polygon fill="#009315" stroke="black" points="144,-167 90,-167 90,-131 144,-131 144,-167"/>
<text text-anchor="middle" x="117" y="-145.3" font-family="Times New Roman,serif" font-size="14.00">jose2</text>
</g>
<!-- jose1&#45;&gt;jose2 -->
<g id="edge1" class="edge"><title>jose1&#45;&gt;jose2</title>
<path fill="none" stroke="black" d="M54.4029,-149C62.3932,-149 71.3106,-149 79.8241,-149"/>
<polygon fill="black" stroke="black" points="79.919,-152.5 89.919,-149 79.919,-145.5 79.919,-152.5"/>
</g>
<!-- jose3 -->
<g id="node4" class="node"><title>jose3</title>
<polygon fill="#8bc6f1" stroke="black" points="144,-113 90,-113 90,-77 144,-77 144,-113"/>
<text text-anchor="middle" x="117" y="-91.3" font-family="Times New Roman,serif" font-size="14.00">jose3</text>
</g>
<!-- jose1&#45;&gt;jose3 -->
<g id="edge2" class="edge"><title>jose1&#45;&gt;jose3</title>
<path fill="none" stroke="black" d="M47.9686,-130.986C57.7319,-124.099 69.7724,-116.423 80.9969,-109.856"/>
<polygon fill="black" stroke="black" points="82.8065,-112.853 89.7647,-104.864 79.3428,-106.77 82.8065,-112.853"/>
</g>
<!-- Disponible 1,3 -->
<g id="node3" class="node"><title>Disponible 1,3</title>
<polygon fill="#ffffff" stroke="black" points="278,-167 180,-167 180,-131 278,-131 278,-167"/>
<text text-anchor="middle" x="229" y="-145.3" font-family="Times New Roman,serif" font-size="14.00">Disponible 1,3</text>
</g>
<!-- jose2&#45;&gt;Disponible 1,3 -->
<g id="edge4" class="edge"><title>jose2&#45;&gt;Disponible 1,3</title>
<path fill="none" stroke="black" d="M144.068,-149C151.823,-149 160.651,-149 169.599,-149"/>
<polygon fill="black" stroke="black" points="169.702,-152.5 179.702,-149 169.702,-145.5 169.702,-152.5"/>
</g>
<!-- jose4 -->
<g id="node5" class="node"><title>jose4</title>
<polygon fill="#df0b09" stroke="black" points="256,-113 202,-113 202,-77 256,-77 256,-113"/>
<text text-anchor="middle" x="229" y="-91.3" font-family="Times New Roman,serif" font-size="14.00">jose4</text>
</g>
<!-- jose2&#45;&gt;jose4 -->
<g id="edge5" class="edge"><title>jose2&#45;&gt;jose4</title>
<path fill="none" stroke="black" d="M142.961,-130.986C157.691,-122.673 176.569,-113.211 192.795,-105.937"/>
<polygon fill="black" stroke="black" points="194.219,-109.134 201.99,-101.933 191.425,-102.716 194.219,-109.134"/>
</g>
<!-- jose5 -->
<g id="node6" class="node"><title>jose5</title>
<polygon fill="#8bc6f1" stroke="black" points="368,-113 314,-113 314,-77 368,-77 368,-113"/>
<text text-anchor="middle" x="341" y="-91.3" font-family="Times New Roman,serif" font-size="14.00">jose5</text>
</g>
<!-- Disponible 1,3&#45;&gt;jose5 -->
<g id="edge7" class="edge"><title>Disponible 1,3&#45;&gt;jose5</title>
<path fill="none" stroke="black" d="M254.961,-130.986C269.691,-122.673 288.569,-113.211 304.795,-105.937"/>
<polygon fill="black" stroke="black" points="306.219,-109.134 313.99,-101.933 303.425,-102.716 306.219,-109.134"/>
</g>
<!-- jose3&#45;&gt;jose1 -->
<g id="edge3" class="edge"><title>jose3&#45;&gt;jose1</title>
<path fill="none" stroke="black" d="M95.7713,-113.198C86.1733,-119.954 74.4187,-127.45 63.4105,-133.905"/>
<polygon fill="black" stroke="black" points="61.3548,-131.048 54.4029,-139.044 64.8233,-137.129 61.3548,-131.048"/>
</g>
<!-- jose3&#45;&gt;jose4 -->
<g id="edge9" class="edge"><title>jose3&#45;&gt;jose4</title>
<path fill="none" stroke="black" d="M144.068,-95C158.212,-95 175.925,-95 191.428,-95"/>
<polygon fill="black" stroke="black" points="191.737,-98.5001 201.737,-95 191.737,-91.5001 191.737,-98.5001"/>
</g>
<!-- jose6 -->
<g id="node7" class="node"><title>jose6</title>
<polygon fill="#e6660a" stroke="black" points="256,-59 202,-59 202,-23 256,-23 256,-59"/>
<text text-anchor="middle" x="229" y="-37.3" font-family="Times New Roman,serif" font-size="14.00">jose6</text>
</g>
<!-- jose3&#45;&gt;jose6 -->
<g id="edge10" class="edge"><title>jose3&#45;&gt;jose6</title>
<path fill="none" stroke="black" d="M142.961,-76.9857C157.691,-68.6731 176.569,-59.2109 192.795,-51.9371"/>
<polygon fill="black" stroke="black" points="194.219,-55.1343 201.99,-47.9326 191.425,-48.7165 194.219,-55.1343"/>
</g>
<!-- jose4&#45;&gt;jose2 -->
<g id="edge6" class="edge"><title>jose4&#45;&gt;jose2</title>
<path fill="none" stroke="black" d="M202.876,-113.106C188.314,-121.315 169.74,-130.631 153.683,-137.848"/>
<polygon fill="black" stroke="black" points="151.835,-134.836 144.068,-142.043 154.634,-141.252 151.835,-134.836"/>
</g>
<!-- jose4&#45;&gt;jose5 -->
<g id="edge12" class="edge"><title>jose4&#45;&gt;jose5</title>
<path fill="none" stroke="black" d="M256.068,-95C270.212,-95 287.925,-95 303.428,-95"/>
<polygon fill="black" stroke="black" points="303.737,-98.5001 313.737,-95 303.737,-91.5001 303.737,-98.5001"/>
</g>
<!-- jose7 -->
<g id="node8" class="node"><title>jose7</title>
<polygon fill="#e8e300" stroke="black" points="368,-59 314,-59 314,-23 368,-23 368,-59"/>
<text text-anchor="middle" x="341" y="-37.3" font-family="Times New Roman,serif" font-size="14.00">jose7</text>
</g>
<!-- jose4&#45;&gt;jose7 -->
<g id="edge13" class="edge"><title>jose4&#45;&gt;jose7</title>
<path fill="none" stroke="black" d="M254.961,-76.9857C269.691,-68.6731 288.569,-59.2109 304.795,-51.9371"/>
<polygon fill="black" stroke="black" points="306.219,-55.1343 313.99,-47.9326 303.425,-48.7165 306.219,-55.1343"/>
</g>
<!-- jose5&#45;&gt;Disponible 1,3 -->
<g id="edge8" class="edge"><title>jose5&#45;&gt;Disponible 1,3</title>
<path fill="none" stroke="black" d="M315.046,-113.011C306.777,-117.677 297.201,-122.705 287.521,-127.506"/>
<polygon fill="black" stroke="black" points="285.708,-124.496 278.248,-132.019 288.771,-130.79 285.708,-124.496"/>
</g>
<!-- jose8 -->
<g id="node9" class="node"><title>jose8</title>
<polygon fill="#009315" stroke="black" points="458,-59 404,-59 404,-23 458,-23 458,-59"/>
<text text-anchor="middle" x="431" y="-37.3" font-family="Times New Roman,serif" font-size="14.00">jose8</text>
</g>
<!-- jose5&#45;&gt;jose8 -->
<g id="edge15" class="edge"><title>jose5&#45;&gt;jose8</title>
<path fill="none" stroke="black" d="M361.969,-76.9857C371.732,-70.0989 383.772,-62.423 394.997,-55.8562"/>
<polygon fill="black" stroke="black" points="396.807,-58.8535 403.765,-50.8638 393.343,-52.7705 396.807,-58.8535"/>
</g>
<!-- jose6&#45;&gt;jose3 -->
<g id="edge11" class="edge"><title>jose6&#45;&gt;jose3</title>
<path fill="none" stroke="black" d="M202.876,-59.1065C188.314,-67.3153 169.74,-76.6308 153.683,-83.8484"/>
<polygon fill="black" stroke="black" points="151.835,-80.836 144.068,-88.0427 154.634,-87.2521 151.835,-80.836"/>
</g>
<!-- jose6&#45;&gt;jose7 -->
<g id="edge17" class="edge"><title>jose6&#45;&gt;jose7</title>
<path fill="none" stroke="black" d="M256.068,-41C270.212,-41 287.925,-41 303.428,-41"/>
<polygon fill="black" stroke="black" points="303.737,-44.5001 313.737,-41 303.737,-37.5001 303.737,-44.5001"/>
</g>
<!-- jose7&#45;&gt;jose4 -->
<g id="edge14" class="edge"><title>jose7&#45;&gt;jose4</title>
<path fill="none" stroke="black" d="M314.876,-59.1065C300.314,-67.3153 281.74,-76.6308 265.683,-83.8484"/>
<polygon fill="black" stroke="black" points="263.835,-80.836 256.068,-88.0427 266.634,-87.2521 263.835,-80.836"/>
</g>
<!-- jose7&#45;&gt;jose8 -->
<g id="edge18" class="edge"><title>jose7&#45;&gt;jose8</title>
<path fill="none" stroke="black" d="M368.403,-41C376.393,-41 385.311,-41 393.824,-41"/>
<polygon fill="black" stroke="black" points="393.919,-44.5001 403.919,-41 393.919,-37.5001 393.919,-44.5001"/>
</g>
<!-- jose8&#45;&gt;jose5 -->
<g id="edge16" class="edge"><title>jose8&#45;&gt;jose5</title>
<path fill="none" stroke="black" d="M409.771,-59.1975C400.173,-65.9537 388.419,-73.45 377.411,-79.9052"/>
<polygon fill="black" stroke="black" points="375.355,-77.0484 368.403,-85.0435 378.823,-83.1287 375.355,-77.0484"/>
</g>
</g>
</svg>
