<?xml version="1.0" encoding="UTF-8" standalone="no"?>
<!DOCTYPE svg PUBLIC "-//W3C//DTD SVG 1.1//EN"
 "http://www.w3.org/Graphics/SVG/1.1/DTD/svg11.dtd">
<!-- Generated by graphviz version 2.38.0 (20140413.2041)
 -->
<!-- Title: Imagen_Reporte Pages: 1 -->
<svg width="567pt" height="131pt"
 viewBox="0.00 0.00 566.66 131.09" xmlns="http://www.w3.org/2000/svg" xmlns:xlink="http://www.w3.org/1999/xlink">
<g id="graph0" class="graph" transform="scale(1 1) rotate(0) translate(4 127.091)">
<title>Imagen_Reporte</title>
<polygon fill="white" stroke="none" points="-4,4 -4,-127.091 562.663,-127.091 562.663,4 -4,4"/>
<text text-anchor="middle" x="279.332" y="-7.8" font-family="Times New Roman,serif" font-size="14.00">&gt;&gt;&gt; personas &lt;&lt;&lt;</text>
<!-- Luis -->
<g id="node1" class="node"><title>Luis</title>
<ellipse fill="#376ce6" stroke="black" cx="26.6476" cy="-73.0456" rx="26.7961" ry="26.7961"/>
<text text-anchor="middle" x="26.6476" y="-69.3456" font-family="Times New Roman,serif" font-size="14.00">Luis</text>
</g>
<!-- Persona 1 -->
<g id="node2" class="node"><title>Persona 1</title>
<ellipse fill="#13da30" stroke="black" cx="136.091" cy="-73.0456" rx="46.5926" ry="46.5926"/>
<text text-anchor="middle" x="136.091" y="-69.3456" font-family="Times New Roman,serif" font-size="14.00">Persona 1</text>
</g>
<!-- Luis&#45;&gt;Persona 1 -->
<g id="edge1" class="edge"><title>Luis&#45;&gt;Persona 1</title>
<path fill="none" stroke="black" d="M52.8384,-67.2251C60.8552,-66.6471 70.0661,-66.3387 79.3574,-66.2998"/>
<polygon fill="black" stroke="black" points="79.3964,-69.8 89.4183,-66.3634 79.4407,-62.8001 79.3964,-69.8"/>
</g>
<!-- Persona 1&#45;&gt;Luis -->
<g id="edge2" class="edge"><title>Persona 1&#45;&gt;Luis</title>
<path fill="none" stroke="black" d="M89.4183,-79.7278C80.6062,-79.8772 71.4985,-79.7796 63.0727,-79.4348"/>
<polygon fill="black" stroke="black" points="63.0172,-75.9264 52.8384,-78.866 62.6287,-82.9157 63.0172,-75.9264"/>
</g>
<!-- Persona 2 -->
<g id="node3" class="node"><title>Persona 2</title>
<ellipse fill="#13da30" stroke="black" cx="265.683" cy="-73.0456" rx="46.5926" ry="46.5926"/>
<text text-anchor="middle" x="265.683" y="-69.3456" font-family="Times New Roman,serif" font-size="14.00">Persona 2</text>
</g>
<!-- Persona 1&#45;&gt;Persona 2 -->
<g id="edge3" class="edge"><title>Persona 1&#45;&gt;Persona 2</title>
<path fill="none" stroke="black" d="M182.434,-66.5531C190.981,-66.3082 200.01,-66.238 208.834,-66.3423"/>
<polygon fill="black" stroke="black" points="208.988,-69.846 219.056,-66.545 209.127,-62.8474 208.988,-69.846"/>
</g>
<!-- Persona 2&#45;&gt;Persona 1 -->
<g id="edge4" class="edge"><title>Persona 2&#45;&gt;Persona 1</title>
<path fill="none" stroke="black" d="M219.056,-79.5461C210.499,-79.7871 201.466,-79.8535 192.648,-79.7453"/>
<polygon fill="black" stroke="black" points="192.503,-76.2417 182.434,-79.5381 192.361,-83.2403 192.503,-76.2417"/>
</g>
<!-- Disponible -->
<g id="node4" class="node"><title>Disponible</title>
<ellipse fill="#ffffff" stroke="black" cx="398.524" cy="-73.0456" rx="50.0912" ry="50.0912"/>
<text text-anchor="middle" x="398.524" y="-69.3456" font-family="Times New Roman,serif" font-size="14.00">Disponible</text>
</g>
<!-- Persona 2&#45;&gt;Disponible -->
<g id="edge5" class="edge"><title>Persona 2&#45;&gt;Disponible</title>
<path fill="none" stroke="black" d="M312.078,-66.5849C320.566,-66.3323 329.551,-66.2451 338.383,-66.3233"/>
<polygon fill="black" stroke="black" points="338.585,-69.827 348.641,-66.491 338.7,-62.8279 338.585,-69.827"/>
</g>
<!-- Disponible&#45;&gt;Persona 2 -->
<g id="edge6" class="edge"><title>Disponible&#45;&gt;Persona 2</title>
<path fill="none" stroke="black" d="M348.641,-79.6001C340.03,-79.8077 331.009,-79.8499 322.231,-79.7268"/>
<polygon fill="black" stroke="black" points="322.151,-76.2243 312.078,-79.5062 321.999,-83.2227 322.151,-76.2243"/>
</g>
<!-- Manuel -->
<g id="node5" class="node"><title>Manuel</title>
<ellipse fill="#df0b09" stroke="black" cx="521.616" cy="-73.0456" rx="37.0935" ry="37.0935"/>
<text text-anchor="middle" x="521.616" y="-69.3456" font-family="Times New Roman,serif" font-size="14.00">Manuel</text>
</g>
<!-- Disponible&#45;&gt;Manuel -->
<g id="edge7" class="edge"><title>Disponible&#45;&gt;Manuel</title>
<path fill="none" stroke="black" d="M448.428,-66.4077C457.108,-66.2386 466.119,-66.2607 474.712,-66.4741"/>
<polygon fill="black" stroke="black" points="474.82,-69.9799 484.936,-66.8293 475.064,-62.9841 474.82,-69.9799"/>
</g>
<!-- Manuel&#45;&gt;Disponible -->
<g id="edge8" class="edge"><title>Manuel&#45;&gt;Disponible</title>
<path fill="none" stroke="black" d="M484.936,-79.2618C476.629,-79.6389 467.566,-79.8161 458.548,-79.7937"/>
<polygon fill="black" stroke="black" points="458.466,-76.2927 448.428,-79.6834 458.389,-83.2922 458.466,-76.2927"/>
</g>
</g>
</svg>
