<?xml version="1.0" encoding="UTF-8" standalone="no"?>
<!DOCTYPE svg PUBLIC "-//W3C//DTD SVG 1.1//EN"
 "http://www.w3.org/Graphics/SVG/1.1/DTD/svg11.dtd">
<!-- Generated by graphviz version 2.38.0 (20140413.2041)
 -->
<!-- Title: Imagen_Reporte Pages: 1 -->
<svg width="576pt" height="36pt"
 viewBox="0.00 0.00 576.00 36.16" xmlns="http://www.w3.org/2000/svg" xmlns:xlink="http://www.w3.org/1999/xlink">
<g id="graph0" class="graph" transform="scale(0.539667 0.539667) rotate(0) translate(4 63)">
<title>Imagen_Reporte</title>
<polygon fill="white" stroke="none" points="-4,4 -4,-63 1063.33,-63 1063.33,4 -4,4"/>
<text text-anchor="middle" x="529.663" y="-7.8" font-family="Times New Roman,serif" font-size="14.00">digitos 0123456789</text>
<!-- &#45;&gt; 0 -->
<g id="node1" class="node"><title>&#45;&gt; 0</title>
<polygon fill="#b3af02" stroke="black" points="36.7663,-59 0.232233,-41 36.7663,-23 73.3003,-41 36.7663,-59"/>
<text text-anchor="middle" x="36.7663" y="-37.3" font-family="Times New Roman,serif" font-size="14.00">&#45;&gt; 0</text>
</g>
<!-- &#45;&gt; 1 -->
<g id="node2" class="node"><title>&#45;&gt; 1</title>
<polygon fill="#b3af02" stroke="black" points="146.299,-59 109.765,-41 146.299,-23 182.833,-41 146.299,-59"/>
<text text-anchor="middle" x="146.299" y="-37.3" font-family="Times New Roman,serif" font-size="14.00">&#45;&gt; 1</text>
</g>
<!-- &#45;&gt; 0&#45;&gt;&#45;&gt; 1 -->
<g id="edge1" class="edge"><title>&#45;&gt; 0&#45;&gt;&#45;&gt; 1</title>
<path fill="none" stroke="black" d="M73.5731,-41C81.9165,-41 90.9119,-41 99.6178,-41"/>
<polygon fill="black" stroke="black" points="99.6485,-44.5001 109.648,-41 99.6484,-37.5001 99.6485,-44.5001"/>
</g>
<!-- &#45;&gt; 2 -->
<g id="node3" class="node"><title>&#45;&gt; 2</title>
<polygon fill="#b3af02" stroke="black" points="255.831,-59 219.297,-41 255.831,-23 292.366,-41 255.831,-59"/>
<text text-anchor="middle" x="255.831" y="-37.3" font-family="Times New Roman,serif" font-size="14.00">&#45;&gt; 2</text>
</g>
<!-- &#45;&gt; 1&#45;&gt;&#45;&gt; 2 -->
<g id="edge2" class="edge"><title>&#45;&gt; 1&#45;&gt;&#45;&gt; 2</title>
<path fill="none" stroke="black" d="M183.106,-41C191.449,-41 200.444,-41 209.15,-41"/>
<polygon fill="black" stroke="black" points="209.181,-44.5001 219.181,-41 209.181,-37.5001 209.181,-44.5001"/>
</g>
<!-- &#45;&gt; 3 -->
<g id="node4" class="node"><title>&#45;&gt; 3</title>
<polygon fill="#b3af02" stroke="black" points="365.364,-59 328.83,-41 365.364,-23 401.898,-41 365.364,-59"/>
<text text-anchor="middle" x="365.364" y="-37.3" font-family="Times New Roman,serif" font-size="14.00">&#45;&gt; 3</text>
</g>
<!-- &#45;&gt; 2&#45;&gt;&#45;&gt; 3 -->
<g id="edge3" class="edge"><title>&#45;&gt; 2&#45;&gt;&#45;&gt; 3</title>
<path fill="none" stroke="black" d="M292.638,-41C300.982,-41 309.977,-41 318.683,-41"/>
<polygon fill="black" stroke="black" points="318.714,-44.5001 328.714,-41 318.714,-37.5001 318.714,-44.5001"/>
</g>
<!-- &#45;&gt; 4 -->
<g id="node5" class="node"><title>&#45;&gt; 4</title>
<polygon fill="#b3af02" stroke="black" points="474.897,-59 438.363,-41 474.897,-23 511.431,-41 474.897,-59"/>
<text text-anchor="middle" x="474.897" y="-37.3" font-family="Times New Roman,serif" font-size="14.00">&#45;&gt; 4</text>
</g>
<!-- &#45;&gt; 3&#45;&gt;&#45;&gt; 4 -->
<g id="edge4" class="edge"><title>&#45;&gt; 3&#45;&gt;&#45;&gt; 4</title>
<path fill="none" stroke="black" d="M402.171,-41C410.514,-41 419.51,-41 428.216,-41"/>
<polygon fill="black" stroke="black" points="428.246,-44.5001 438.246,-41 428.246,-37.5001 428.246,-44.5001"/>
</g>
<!-- &#45;&gt; 5 -->
<g id="node6" class="node"><title>&#45;&gt; 5</title>
<polygon fill="#b3af02" stroke="black" points="584.429,-59 547.895,-41 584.429,-23 620.963,-41 584.429,-59"/>
<text text-anchor="middle" x="584.429" y="-37.3" font-family="Times New Roman,serif" font-size="14.00">&#45;&gt; 5</text>
</g>
<!-- &#45;&gt; 4&#45;&gt;&#45;&gt; 5 -->
<g id="edge5" class="edge"><title>&#45;&gt; 4&#45;&gt;&#45;&gt; 5</title>
<path fill="none" stroke="black" d="M511.703,-41C520.047,-41 529.042,-41 537.748,-41"/>
<polygon fill="black" stroke="black" points="537.779,-44.5001 547.779,-41 537.779,-37.5001 537.779,-44.5001"/>
</g>
<!-- &#45;&gt; 6 -->
<g id="node7" class="node"><title>&#45;&gt; 6</title>
<polygon fill="#b3af02" stroke="black" points="693.962,-59 657.428,-41 693.962,-23 730.496,-41 693.962,-59"/>
<text text-anchor="middle" x="693.962" y="-37.3" font-family="Times New Roman,serif" font-size="14.00">&#45;&gt; 6</text>
</g>
<!-- &#45;&gt; 5&#45;&gt;&#45;&gt; 6 -->
<g id="edge6" class="edge"><title>&#45;&gt; 5&#45;&gt;&#45;&gt; 6</title>
<path fill="none" stroke="black" d="M621.236,-41C629.579,-41 638.575,-41 647.281,-41"/>
<polygon fill="black" stroke="black" points="647.311,-44.5001 657.311,-41 647.311,-37.5001 647.311,-44.5001"/>
</g>
<!-- &#45;&gt; 7 -->
<g id="node8" class="node"><title>&#45;&gt; 7</title>
<polygon fill="#b3af02" stroke="black" points="803.494,-59 766.96,-41 803.494,-23 840.028,-41 803.494,-59"/>
<text text-anchor="middle" x="803.494" y="-37.3" font-family="Times New Roman,serif" font-size="14.00">&#45;&gt; 7</text>
</g>
<!-- &#45;&gt; 6&#45;&gt;&#45;&gt; 7 -->
<g id="edge7" class="edge"><title>&#45;&gt; 6&#45;&gt;&#45;&gt; 7</title>
<path fill="none" stroke="black" d="M730.769,-41C739.112,-41 748.107,-41 756.813,-41"/>
<polygon fill="black" stroke="black" points="756.844,-44.5001 766.844,-41 756.844,-37.5001 756.844,-44.5001"/>
</g>
<!-- &#45;&gt; 8 -->
<g id="node9" class="node"><title>&#45;&gt; 8</title>
<polygon fill="#b3af02" stroke="black" points="913.027,-59 876.493,-41 913.027,-23 949.561,-41 913.027,-59"/>
<text text-anchor="middle" x="913.027" y="-37.3" font-family="Times New Roman,serif" font-size="14.00">&#45;&gt; 8</text>
</g>
<!-- &#45;&gt; 7&#45;&gt;&#45;&gt; 8 -->
<g id="edge8" class="edge"><title>&#45;&gt; 7&#45;&gt;&#45;&gt; 8</title>
<path fill="none" stroke="black" d="M840.301,-41C848.645,-41 857.64,-41 866.346,-41"/>
<polygon fill="black" stroke="black" points="866.377,-44.5001 876.377,-41 866.376,-37.5001 866.377,-44.5001"/>
</g>
<!-- &#45;&gt; 9 -->
<g id="node10" class="node"><title>&#45;&gt; 9</title>
<polygon fill="#b3af02" stroke="black" points="1022.56,-59 986.025,-41 1022.56,-23 1059.09,-41 1022.56,-59"/>
<text text-anchor="middle" x="1022.56" y="-37.3" font-family="Times New Roman,serif" font-size="14.00">&#45;&gt; 9</text>
</g>
<!-- &#45;&gt; 8&#45;&gt;&#45;&gt; 9 -->
<g id="edge9" class="edge"><title>&#45;&gt; 8&#45;&gt;&#45;&gt; 9</title>
<path fill="none" stroke="black" d="M949.834,-41C958.177,-41 967.173,-41 975.878,-41"/>
<polygon fill="black" stroke="black" points="975.909,-44.5001 985.909,-41 975.909,-37.5001 975.909,-44.5001"/>
</g>
</g>
</svg>
