<?xml version="1.0" encoding="UTF-8" standalone="no"?>
<!DOCTYPE svg PUBLIC "-//W3C//DTD SVG 1.1//EN"
 "http://www.w3.org/Graphics/SVG/1.1/DTD/svg11.dtd">
<!-- Generated by graphviz version 2.38.0 (20140413.2041)
 -->
<!-- Title: Imagen_Reporte Pages: 1 -->
<svg width="576pt" height="33pt"
 viewBox="0.00 0.00 576.00 33.33" xmlns="http://www.w3.org/2000/svg" xmlns:xlink="http://www.w3.org/1999/xlink">
<g id="graph0" class="graph" transform="scale(0.757414 0.757414) rotate(0) translate(4 40)">
<title>Imagen_Reporte</title>
<polygon fill="white" stroke="none" points="-4,4 -4,-40 756.482,-40 756.482,4 -4,4"/>
<!-- Luis2s -->
<g id="node1" class="node"><title>Luis2s</title>
<polygon fill="#376ce6" stroke="black" points="48.7153,-36 -0.216291,-18 48.7153,-3.55271e-015 97.647,-18 48.7153,-36"/>
<text text-anchor="middle" x="48.7153" y="-14.3" font-family="Times New Roman,serif" font-size="14.00">Luis2s</text>
</g>
<!-- Persona 1 -->
<g id="node2" class="node"><title>Persona 1</title>
<polygon fill="#13da30" stroke="black" points="199.61,-36 133.251,-18 199.61,-3.55271e-015 265.969,-18 199.61,-36"/>
<text text-anchor="middle" x="199.61" y="-14.3" font-family="Times New Roman,serif" font-size="14.00">Persona 1</text>
</g>
<!-- Luis2s&#45;&gt;Persona 1 -->
<g id="edge1" class="edge"><title>Luis2s&#45;&gt;Persona 1</title>
<path fill="none" stroke="black" d="M82.3909,-12.3007C100.93,-11.2535 124.578,-10.9891 145.697,-11.5075"/>
<polygon fill="black" stroke="black" points="145.723,-15.0099 155.827,-11.8249 145.942,-8.01338 145.723,-15.0099"/>
</g>
<!-- Persona 1&#45;&gt;Luis2s -->
<g id="edge2" class="edge"><title>Persona 1&#45;&gt;Luis2s</title>
<path fill="none" stroke="black" d="M155.827,-24.1751C135.924,-24.9427 112.309,-24.9416 92.4153,-24.1719"/>
<polygon fill="black" stroke="black" points="92.5447,-20.6742 82.3909,-23.6993 92.215,-27.6664 92.5447,-20.6742"/>
</g>
<!-- Persona 2 -->
<g id="node3" class="node"><title>Persona 2</title>
<polygon fill="#13da30" stroke="black" points="367.969,-36 301.61,-18 367.969,-3.55271e-015 434.328,-18 367.969,-36"/>
<text text-anchor="middle" x="367.969" y="-14.3" font-family="Times New Roman,serif" font-size="14.00">Persona 2</text>
</g>
<!-- Persona 1&#45;&gt;Persona 2 -->
<g id="edge3" class="edge"><title>Persona 1&#45;&gt;Persona 2</title>
<path fill="none" stroke="black" d="M243.884,-11.9942C265.173,-11.1346 291.033,-11.0197 313.543,-11.6495"/>
<polygon fill="black" stroke="black" points="313.509,-15.1502 323.622,-11.9912 313.747,-8.15425 313.509,-15.1502"/>
</g>
<!-- Persona 2&#45;&gt;Persona 1 -->
<g id="edge4" class="edge"><title>Persona 2&#45;&gt;Persona 1</title>
<path fill="none" stroke="black" d="M323.622,-24.0088C302.323,-24.8667 276.462,-24.9799 253.959,-24.3484"/>
<polygon fill="black" stroke="black" points="253.998,-20.8478 243.884,-24.0058 253.76,-27.8437 253.998,-20.8478"/>
</g>
<!-- Disponible -->
<g id="node4" class="node"><title>Disponible</title>
<polygon fill="#ffffff" stroke="black" points="540.923,-36 470.372,-18 540.923,-3.55271e-015 611.474,-18 540.923,-36"/>
<text text-anchor="middle" x="540.923" y="-14.3" font-family="Times New Roman,serif" font-size="14.00">Disponible</text>
</g>
<!-- Persona 2&#45;&gt;Disponible -->
<g id="edge5" class="edge"><title>Persona 2&#45;&gt;Disponible</title>
<path fill="none" stroke="black" d="M412.55,-12.0296C434.266,-11.1511 460.774,-11.0151 483.974,-11.6215"/>
<polygon fill="black" stroke="black" points="483.924,-15.1216 494.03,-11.9395 484.145,-8.12509 483.924,-15.1216"/>
</g>
<!-- Disponible&#45;&gt;Persona 2 -->
<g id="edge6" class="edge"><title>Disponible&#45;&gt;Persona 2</title>
<path fill="none" stroke="black" d="M494.03,-24.0605C472.085,-24.883 445.674,-24.9696 422.788,-24.3205"/>
<polygon fill="black" stroke="black" points="422.664,-20.8143 412.55,-23.9704 422.425,-27.8102 422.664,-20.8143"/>
</g>
<!-- Manuel -->
<g id="node5" class="node"><title>Manuel</title>
<polygon fill="#df0b09" stroke="black" points="700.09,-36 647.806,-18 700.09,-3.55271e-015 752.374,-18 700.09,-36"/>
<text text-anchor="middle" x="700.09" y="-14.3" font-family="Times New Roman,serif" font-size="14.00">Manuel</text>
</g>
<!-- Disponible&#45;&gt;Manuel -->
<g id="edge7" class="edge"><title>Disponible&#45;&gt;Manuel</title>
<path fill="none" stroke="black" d="M587.382,-11.814C608.322,-11.0576 633.103,-11.062 653.998,-11.8274"/>
<polygon fill="black" stroke="black" points="654.074,-15.3341 664.219,-12.2805 654.384,-8.34093 654.074,-15.3341"/>
</g>
<!-- Manuel&#45;&gt;Disponible -->
<g id="edge8" class="edge"><title>Manuel&#45;&gt;Disponible</title>
<path fill="none" stroke="black" d="M664.219,-23.7195C644.592,-24.756 619.631,-25.0106 597.384,-24.4833"/>
<polygon fill="black" stroke="black" points="597.482,-20.9847 587.382,-24.186 597.274,-27.9817 597.482,-20.9847"/>
</g>
</g>
</svg>
