<?xml version="1.0" encoding="UTF-8" standalone="no"?>
<!DOCTYPE svg PUBLIC "-//W3C//DTD SVG 1.1//EN"
 "http://www.w3.org/Graphics/SVG/1.1/DTD/svg11.dtd">
<!-- Generated by graphviz version 2.38.0 (20140413.2041)
 -->
<!-- Title: Imagen_Reporte Pages: 1 -->
<svg width="576pt" height="107pt"
 viewBox="0.00 0.00 576.00 106.93" xmlns="http://www.w3.org/2000/svg" xmlns:xlink="http://www.w3.org/1999/xlink">
<g id="graph0" class="graph" transform="scale(0.989246 0.989246) rotate(0) translate(4 104.091)">
<title>Imagen_Reporte</title>
<polygon fill="white" stroke="none" points="-4,4 -4,-104.091 578.262,-104.091 578.262,4 -4,4"/>
<!-- Luis2s -->
<g id="node1" class="node"><title>Luis2s</title>
<ellipse fill="#376ce6" stroke="black" cx="34.4469" cy="-50.0456" rx="34.394" ry="34.394"/>
<text text-anchor="middle" x="34.4469" y="-46.3456" font-family="Times New Roman,serif" font-size="14.00">Luis2s</text>
</g>
<!-- Persona 1 -->
<g id="node2" class="node"><title>Persona 1</title>
<ellipse fill="#13da30" stroke="black" cx="151.69" cy="-50.0456" rx="46.5926" ry="46.5926"/>
<text text-anchor="middle" x="151.69" y="-46.3456" font-family="Times New Roman,serif" font-size="14.00">Persona 1</text>
</g>
<!-- Luis2s&#45;&gt;Persona 1 -->
<g id="edge1" class="edge"><title>Luis2s&#45;&gt;Persona 1</title>
<path fill="none" stroke="black" d="M68.4709,-43.8749C76.7828,-43.4589 85.9353,-43.2669 95.023,-43.299"/>
<polygon fill="black" stroke="black" points="95.163,-46.801 105.207,-43.4305 95.2534,-39.8016 95.163,-46.801"/>
</g>
<!-- Persona 1&#45;&gt;Luis2s -->
<g id="edge2" class="edge"><title>Persona 1&#45;&gt;Luis2s</title>
<path fill="none" stroke="black" d="M105.207,-56.6606C96.4885,-56.8571 87.3811,-56.839 78.7337,-56.6064"/>
<polygon fill="black" stroke="black" points="78.5967,-53.0987 68.4709,-56.2162 78.3307,-60.0937 78.5967,-53.0987"/>
</g>
<!-- Persona 2 -->
<g id="node3" class="node"><title>Persona 2</title>
<ellipse fill="#13da30" stroke="black" cx="281.281" cy="-50.0456" rx="46.5926" ry="46.5926"/>
<text text-anchor="middle" x="281.281" y="-46.3456" font-family="Times New Roman,serif" font-size="14.00">Persona 2</text>
</g>
<!-- Persona 1&#45;&gt;Persona 2 -->
<g id="edge3" class="edge"><title>Persona 1&#45;&gt;Persona 2</title>
<path fill="none" stroke="black" d="M198.033,-43.5531C206.579,-43.3082 215.609,-43.238 224.432,-43.3423"/>
<polygon fill="black" stroke="black" points="224.587,-46.846 234.654,-43.545 224.726,-39.8474 224.587,-46.846"/>
</g>
<!-- Persona 2&#45;&gt;Persona 1 -->
<g id="edge4" class="edge"><title>Persona 2&#45;&gt;Persona 1</title>
<path fill="none" stroke="black" d="M234.654,-56.5461C226.098,-56.7871 217.065,-56.8535 208.246,-56.7453"/>
<polygon fill="black" stroke="black" points="208.102,-53.2417 198.033,-56.5381 207.96,-60.2403 208.102,-53.2417"/>
</g>
<!-- Disponible -->
<g id="node4" class="node"><title>Disponible</title>
<ellipse fill="#ffffff" stroke="black" cx="414.123" cy="-50.0456" rx="50.0912" ry="50.0912"/>
<text text-anchor="middle" x="414.123" y="-46.3456" font-family="Times New Roman,serif" font-size="14.00">Disponible</text>
</g>
<!-- Persona 2&#45;&gt;Disponible -->
<g id="edge5" class="edge"><title>Persona 2&#45;&gt;Disponible</title>
<path fill="none" stroke="black" d="M327.676,-43.5849C336.164,-43.3323 345.15,-43.2451 353.982,-43.3233"/>
<polygon fill="black" stroke="black" points="354.184,-46.827 364.24,-43.491 354.298,-39.8279 354.184,-46.827"/>
</g>
<!-- Disponible&#45;&gt;Persona 2 -->
<g id="edge6" class="edge"><title>Disponible&#45;&gt;Persona 2</title>
<path fill="none" stroke="black" d="M364.24,-56.6001C355.628,-56.8077 346.608,-56.8499 337.83,-56.7268"/>
<polygon fill="black" stroke="black" points="337.75,-53.2243 327.676,-56.5062 337.598,-60.2227 337.75,-53.2243"/>
</g>
<!-- Manuel -->
<g id="node5" class="node"><title>Manuel</title>
<ellipse fill="#df0b09" stroke="black" cx="537.215" cy="-50.0456" rx="37.0935" ry="37.0935"/>
<text text-anchor="middle" x="537.215" y="-46.3456" font-family="Times New Roman,serif" font-size="14.00">Manuel</text>
</g>
<!-- Disponible&#45;&gt;Manuel -->
<g id="edge7" class="edge"><title>Disponible&#45;&gt;Manuel</title>
<path fill="none" stroke="black" d="M464.027,-43.4077C472.706,-43.2386 481.718,-43.2607 490.311,-43.4741"/>
<polygon fill="black" stroke="black" points="490.419,-46.9799 500.535,-43.8293 490.662,-39.9841 490.419,-46.9799"/>
</g>
<!-- Manuel&#45;&gt;Disponible -->
<g id="edge8" class="edge"><title>Manuel&#45;&gt;Disponible</title>
<path fill="none" stroke="black" d="M500.535,-56.2618C492.227,-56.6389 483.164,-56.8161 474.146,-56.7937"/>
<polygon fill="black" stroke="black" points="474.064,-53.2927 464.027,-56.6834 473.988,-60.2922 474.064,-53.2927"/>
</g>
</g>
</svg>
