<?xml version="1.0" encoding="UTF-8" standalone="no"?>
<!DOCTYPE svg PUBLIC "-//W3C//DTD SVG 1.1//EN"
 "http://www.w3.org/Graphics/SVG/1.1/DTD/svg11.dtd">
<!-- Generated by graphviz version 2.38.0 (20140413.2041)
 -->
<!-- Title: Imagen_Reporte Pages: 1 -->
<svg width="576pt" height="107pt"
 viewBox="0.00 0.00 576.00 106.93" xmlns="http://www.w3.org/2000/svg" xmlns:xlink="http://www.w3.org/1999/xlink">
<g id="graph0" class="graph" transform="scale(0.989246 0.989246) rotate(0) translate(4 104.091)">
<title>Imagen_Reporte</title>
<polygon fill="white" stroke="none" points="-4,4 -4,-104.091 578.262,-104.091 578.262,4 -4,4"/>
<!-- Luis2s -->
<g id="node1" class="node"><title>Luis2s</title>
<ellipse fill="#376ce6" stroke="black" cx="34.4469" cy="-50.0456" rx="34.394" ry="34.394"/>
<text text-anchor="middle" x="34.4469" y="-46.3456" font-family="Times New Roman,serif" font-size="14.00">Luis2s</text>
</g>
<!-- Persona 1 -->
<g id="node2" class="node"><title>Persona 1</title>
<ellipse fill="#13da30" stroke="black" cx="151.69" cy="-50.0456" rx="46.5926" ry="46.5926"/>
<text text-anchor="middle" x="151.69" y="-46.3456" font-family="Times New Roman,serif" font-size="14.00">Persona 1</text>
</g>
<!-- Luis2s&#45;&gt;Persona 1 -->
<g id="edge1" class="edge"><title>Luis2s&#45;&gt;Persona 1</title>
<path fill="none" stroke="black" d="M69.0897,-50.0456C77.1119,-50.0456 85.8889,-50.0456 94.6183,-50.0456"/>
<polygon fill="black" stroke="black" points="94.7961,-53.5457 104.796,-50.0456 94.796,-46.5457 94.7961,-53.5457"/>
</g>
<!-- Persona 2 -->
<g id="node3" class="node"><title>Persona 2</title>
<ellipse fill="#13da30" stroke="black" cx="281.281" cy="-50.0456" rx="46.5926" ry="46.5926"/>
<text text-anchor="middle" x="281.281" y="-46.3456" font-family="Times New Roman,serif" font-size="14.00">Persona 2</text>
</g>
<!-- Persona 1&#45;&gt;Persona 2 -->
<g id="edge2" class="edge"><title>Persona 1&#45;&gt;Persona 2</title>
<path fill="none" stroke="black" d="M198.753,-50.0456C206.974,-50.0456 215.622,-50.0456 224.089,-50.0456"/>
<polygon fill="black" stroke="black" points="224.286,-53.5457 234.286,-50.0456 224.285,-46.5457 224.286,-53.5457"/>
</g>
<!-- Disponible -->
<g id="node4" class="node"><title>Disponible</title>
<ellipse fill="#ffffff" stroke="black" cx="414.123" cy="-50.0456" rx="50.0912" ry="50.0912"/>
<text text-anchor="middle" x="414.123" y="-46.3456" font-family="Times New Roman,serif" font-size="14.00">Disponible</text>
</g>
<!-- Persona 2&#45;&gt;Disponible -->
<g id="edge3" class="edge"><title>Persona 2&#45;&gt;Disponible</title>
<path fill="none" stroke="black" d="M328.411,-50.0456C336.571,-50.0456 345.171,-50.0456 353.637,-50.0456"/>
<polygon fill="black" stroke="black" points="353.858,-53.5457 363.858,-50.0456 353.858,-46.5457 353.858,-53.5457"/>
</g>
<!-- Manuel -->
<g id="node5" class="node"><title>Manuel</title>
<ellipse fill="#df0b09" stroke="black" cx="537.215" cy="-50.0456" rx="37.0935" ry="37.0935"/>
<text text-anchor="middle" x="537.215" y="-46.3456" font-family="Times New Roman,serif" font-size="14.00">Manuel</text>
</g>
<!-- Disponible&#45;&gt;Manuel -->
<g id="edge4" class="edge"><title>Disponible&#45;&gt;Manuel</title>
<path fill="none" stroke="black" d="M464.376,-50.0456C472.755,-50.0456 481.433,-50.0456 489.738,-50.0456"/>
<polygon fill="black" stroke="black" points="490.007,-53.5457 500.006,-50.0456 490.006,-46.5457 490.007,-53.5457"/>
</g>
</g>
</svg>
