<?xml version="1.0" encoding="UTF-8" standalone="no"?>
<!DOCTYPE svg PUBLIC "-//W3C//DTD SVG 1.1//EN"
 "http://www.w3.org/Graphics/SVG/1.1/DTD/svg11.dtd">
<!-- Generated by graphviz version 2.44.1 (20200629.0846)
 -->
<!-- Title: G Pages: 1 -->
<svg width="929pt" height="103pt"
 viewBox="0.00 0.00 928.96 103.00" xmlns="http://www.w3.org/2000/svg" xmlns:xlink="http://www.w3.org/1999/xlink">
<g id="graph0" class="graph" transform="scale(1 1) rotate(0) translate(4 99)">
<title>G</title>
<polygon fill="skyblue" stroke="transparent" points="-4,4 -4,-99 924.96,-99 924.96,4 -4,4"/>
<text text-anchor="middle" x="460.48" y="-7.8" font-family="Times,serif" font-size="14.00">DIGITOS 0123456789</text>
<!-- a -->
<g id="node1" class="node">
<title>a</title>
<polygon fill="#cd950c" stroke="#cd950c" points="29.85,-95 0.15,-59 29.85,-23 59.55,-59 29.85,-95"/>
<text text-anchor="middle" x="29.85" y="-55.3" font-family="Times,serif" font-size="14.00">&#45;&gt; 0</text>
</g>
<!-- b -->
<g id="node2" class="node">
<title>b</title>
<polygon fill="#cd950c" stroke="#cd950c" points="125.54,-95 95.85,-59 125.54,-23 155.24,-59 125.54,-95"/>
<text text-anchor="middle" x="125.54" y="-55.3" font-family="Times,serif" font-size="14.00">&#45;&gt; 1</text>
</g>
<!-- a&#45;&gt;b -->
<g id="edge1" class="edge">
<title>a&#45;&gt;b</title>
<path fill="none" stroke="black" d="M59.72,-59C67.83,-59 76.78,-59 85.37,-59"/>
<polygon fill="black" stroke="black" points="85.6,-62.5 95.6,-59 85.6,-55.5 85.6,-62.5"/>
</g>
<!-- c -->
<g id="node3" class="node">
<title>c</title>
<polygon fill="#cd950c" stroke="#cd950c" points="221.24,-95 191.54,-59 221.24,-23 250.94,-59 221.24,-95"/>
<text text-anchor="middle" x="221.24" y="-55.3" font-family="Times,serif" font-size="14.00">&#45;&gt; 2</text>
</g>
<!-- b&#45;&gt;c -->
<g id="edge2" class="edge">
<title>b&#45;&gt;c</title>
<path fill="none" stroke="black" d="M155.42,-59C163.53,-59 172.47,-59 181.07,-59"/>
<polygon fill="black" stroke="black" points="181.3,-62.5 191.3,-59 181.3,-55.5 181.3,-62.5"/>
</g>
<!-- d -->
<g id="node4" class="node">
<title>d</title>
<polygon fill="#cd950c" stroke="#cd950c" points="316.94,-95 287.24,-59 316.94,-23 346.63,-59 316.94,-95"/>
<text text-anchor="middle" x="316.94" y="-55.3" font-family="Times,serif" font-size="14.00">&#45;&gt; 3</text>
</g>
<!-- c&#45;&gt;d -->
<g id="edge3" class="edge">
<title>c&#45;&gt;d</title>
<path fill="none" stroke="black" d="M251.12,-59C259.22,-59 268.17,-59 276.77,-59"/>
<polygon fill="black" stroke="black" points="276.99,-62.5 286.99,-59 276.99,-55.5 276.99,-62.5"/>
</g>
<!-- e -->
<g id="node5" class="node">
<title>e</title>
<polygon fill="#cd950c" stroke="#cd950c" points="412.63,-95 382.94,-59 412.63,-23 442.33,-59 412.63,-95"/>
<text text-anchor="middle" x="412.63" y="-55.3" font-family="Times,serif" font-size="14.00">&#45;&gt; 4</text>
</g>
<!-- d&#45;&gt;e -->
<g id="edge4" class="edge">
<title>d&#45;&gt;e</title>
<path fill="none" stroke="black" d="M346.81,-59C354.92,-59 363.87,-59 372.46,-59"/>
<polygon fill="black" stroke="black" points="372.69,-62.5 382.69,-59 372.69,-55.5 372.69,-62.5"/>
</g>
<!-- f -->
<g id="node6" class="node">
<title>f</title>
<polygon fill="#cd950c" stroke="#cd950c" points="508.33,-95 478.63,-59 508.33,-23 538.03,-59 508.33,-95"/>
<text text-anchor="middle" x="508.33" y="-55.3" font-family="Times,serif" font-size="14.00">&#45;&gt; 5</text>
</g>
<!-- e&#45;&gt;f -->
<g id="edge5" class="edge">
<title>e&#45;&gt;f</title>
<path fill="none" stroke="black" d="M442.51,-59C450.61,-59 459.56,-59 468.16,-59"/>
<polygon fill="black" stroke="black" points="468.39,-62.5 478.39,-59 468.39,-55.5 468.39,-62.5"/>
</g>
<!-- g -->
<g id="node7" class="node">
<title>g</title>
<polygon fill="#cd950c" stroke="#cd950c" points="604.03,-95 574.33,-59 604.03,-23 633.72,-59 604.03,-95"/>
<text text-anchor="middle" x="604.03" y="-55.3" font-family="Times,serif" font-size="14.00">&#45;&gt; 6</text>
</g>
<!-- f&#45;&gt;g -->
<g id="edge6" class="edge">
<title>f&#45;&gt;g</title>
<path fill="none" stroke="black" d="M538.21,-59C546.31,-59 555.26,-59 563.86,-59"/>
<polygon fill="black" stroke="black" points="564.08,-62.5 574.08,-59 564.08,-55.5 564.08,-62.5"/>
</g>
<!-- h -->
<g id="node8" class="node">
<title>h</title>
<polygon fill="#cd950c" stroke="#cd950c" points="699.72,-95 670.03,-59 699.72,-23 729.42,-59 699.72,-95"/>
<text text-anchor="middle" x="699.72" y="-55.3" font-family="Times,serif" font-size="14.00">&#45;&gt; 7</text>
</g>
<!-- g&#45;&gt;h -->
<g id="edge7" class="edge">
<title>g&#45;&gt;h</title>
<path fill="none" stroke="black" d="M633.9,-59C642.01,-59 650.96,-59 659.55,-59"/>
<polygon fill="black" stroke="black" points="659.78,-62.5 669.78,-59 659.78,-55.5 659.78,-62.5"/>
</g>
<!-- i -->
<g id="node9" class="node">
<title>i</title>
<polygon fill="#cd950c" stroke="#cd950c" points="795.42,-95 765.72,-59 795.42,-23 825.12,-59 795.42,-95"/>
<text text-anchor="middle" x="795.42" y="-55.3" font-family="Times,serif" font-size="14.00">&#45;&gt; 8</text>
</g>
<!-- h&#45;&gt;i -->
<g id="edge8" class="edge">
<title>h&#45;&gt;i</title>
<path fill="none" stroke="black" d="M729.6,-59C737.7,-59 746.65,-59 755.25,-59"/>
<polygon fill="black" stroke="black" points="755.48,-62.5 765.48,-59 755.48,-55.5 755.48,-62.5"/>
</g>
<!-- j -->
<g id="node10" class="node">
<title>j</title>
<polygon fill="#cd950c" stroke="#cd950c" points="891.12,-95 861.42,-59 891.12,-23 920.81,-59 891.12,-95"/>
<text text-anchor="middle" x="891.12" y="-55.3" font-family="Times,serif" font-size="14.00">&#45;&gt; 9</text>
</g>
<!-- i&#45;&gt;j -->
<g id="edge9" class="edge">
<title>i&#45;&gt;j</title>
<path fill="none" stroke="black" d="M825.3,-59C833.4,-59 842.35,-59 850.94,-59"/>
<polygon fill="black" stroke="black" points="851.17,-62.5 861.17,-59 851.17,-55.5 851.17,-62.5"/>
</g>
</g>
</svg>
