<?xml version="1.0" encoding="UTF-8" standalone="no"?>
<!DOCTYPE svg PUBLIC "-//W3C//DTD SVG 1.1//EN"
 "http://www.w3.org/Graphics/SVG/1.1/DTD/svg11.dtd">
<!-- Generated by graphviz version 2.44.1 (20200629.0846)
 -->
<!-- Title: tabla Pages: 1 -->
<svg width="101pt" height="148pt"
 viewBox="0.00 0.00 101.00 148.00" xmlns="http://www.w3.org/2000/svg" xmlns:xlink="http://www.w3.org/1999/xlink">
<g id="graph0" class="graph" transform="scale(1 1) rotate(0) translate(4 144)">
<title>tabla</title>
<polygon fill="skyblue" stroke="transparent" points="-4,4 -4,-144 97,-144 97,4 -4,4"/>
<text text-anchor="middle" x="46.5" y="-7.8" font-family="Times,serif" font-size="14.00">Disyunción</text>
<!-- node0 -->
<g id="node1" class="node">
<title>node0</title>
<polygon fill="#fff68f" stroke="transparent" points="10.5,-112.5 10.5,-133.5 23.5,-133.5 23.5,-112.5 10.5,-112.5"/>
<polygon fill="none" stroke="#000000" points="10.5,-112.5 10.5,-133.5 23.5,-133.5 23.5,-112.5 10.5,-112.5"/>
<text text-anchor="start" x="13.5" y="-119.3" font-family="Times,serif" font-size="14.00">#</text>
<polygon fill="#fff68f" stroke="transparent" points="23.5,-112.5 23.5,-133.5 36.5,-133.5 36.5,-112.5 23.5,-112.5"/>
<polygon fill="none" stroke="#000000" points="23.5,-112.5 23.5,-133.5 36.5,-133.5 36.5,-112.5 23.5,-112.5"/>
<text text-anchor="start" x="26.5" y="-119.3" font-family="Times,serif" font-size="14.00">p</text>
<polygon fill="#fff68f" stroke="transparent" points="36.5,-112.5 36.5,-133.5 49.5,-133.5 49.5,-112.5 36.5,-112.5"/>
<polygon fill="none" stroke="#000000" points="36.5,-112.5 36.5,-133.5 49.5,-133.5 49.5,-112.5 36.5,-112.5"/>
<text text-anchor="start" x="39.5" y="-119.3" font-family="Times,serif" font-size="14.00">q</text>
<polygon fill="#fff68f" stroke="transparent" points="49.5,-112.5 49.5,-133.5 83.5,-133.5 83.5,-112.5 49.5,-112.5"/>
<polygon fill="none" stroke="#000000" points="49.5,-112.5 49.5,-133.5 83.5,-133.5 83.5,-112.5 49.5,-112.5"/>
<text text-anchor="start" x="52.5" y="-119.3" font-family="Times,serif" font-size="14.00">p v q</text>
<polygon fill="gainsboro" stroke="transparent" points="10.5,-91.5 10.5,-112.5 23.5,-112.5 23.5,-91.5 10.5,-91.5"/>
<polygon fill="none" stroke="#000000" points="10.5,-91.5 10.5,-112.5 23.5,-112.5 23.5,-91.5 10.5,-91.5"/>
<text text-anchor="start" x="13.5" y="-98.3" font-family="Times,serif" font-size="14.00">1</text>
<polygon fill="gainsboro" stroke="transparent" points="23.5,-91.5 23.5,-112.5 36.5,-112.5 36.5,-91.5 23.5,-91.5"/>
<polygon fill="none" stroke="#000000" points="23.5,-91.5 23.5,-112.5 36.5,-112.5 36.5,-91.5 23.5,-91.5"/>
<text text-anchor="start" x="26.5" y="-98.3" font-family="Times,serif" font-size="14.00">0</text>
<polygon fill="gainsboro" stroke="transparent" points="36.5,-91.5 36.5,-112.5 49.5,-112.5 49.5,-91.5 36.5,-91.5"/>
<polygon fill="none" stroke="#000000" points="36.5,-91.5 36.5,-112.5 49.5,-112.5 49.5,-91.5 36.5,-91.5"/>
<text text-anchor="start" x="39.5" y="-98.3" font-family="Times,serif" font-size="14.00">0</text>
<polygon fill="gainsboro" stroke="transparent" points="49.5,-91.5 49.5,-112.5 83.5,-112.5 83.5,-91.5 49.5,-91.5"/>
<polygon fill="none" stroke="#000000" points="49.5,-91.5 49.5,-112.5 83.5,-112.5 83.5,-91.5 49.5,-91.5"/>
<text text-anchor="start" x="63" y="-98.3" font-family="Times,serif" font-size="14.00">0</text>
<polygon fill="#cdaa7d" stroke="transparent" points="10.5,-70.5 10.5,-91.5 23.5,-91.5 23.5,-70.5 10.5,-70.5"/>
<polygon fill="none" stroke="#000000" points="10.5,-70.5 10.5,-91.5 23.5,-91.5 23.5,-70.5 10.5,-70.5"/>
<text text-anchor="start" x="13.5" y="-77.3" font-family="Times,serif" font-size="14.00">2</text>
<polygon fill="#cdaa7d" stroke="transparent" points="23.5,-70.5 23.5,-91.5 36.5,-91.5 36.5,-70.5 23.5,-70.5"/>
<polygon fill="none" stroke="#000000" points="23.5,-70.5 23.5,-91.5 36.5,-91.5 36.5,-70.5 23.5,-70.5"/>
<text text-anchor="start" x="26.5" y="-77.3" font-family="Times,serif" font-size="14.00">0</text>
<polygon fill="#cdaa7d" stroke="transparent" points="36.5,-70.5 36.5,-91.5 49.5,-91.5 49.5,-70.5 36.5,-70.5"/>
<polygon fill="none" stroke="#000000" points="36.5,-70.5 36.5,-91.5 49.5,-91.5 49.5,-70.5 36.5,-70.5"/>
<text text-anchor="start" x="39.5" y="-77.3" font-family="Times,serif" font-size="14.00">1</text>
<polygon fill="#cdaa7d" stroke="transparent" points="49.5,-70.5 49.5,-91.5 83.5,-91.5 83.5,-70.5 49.5,-70.5"/>
<polygon fill="none" stroke="#000000" points="49.5,-70.5 49.5,-91.5 83.5,-91.5 83.5,-70.5 49.5,-70.5"/>
<text text-anchor="start" x="63" y="-77.3" font-family="Times,serif" font-size="14.00">1</text>
<polygon fill="plum" stroke="transparent" points="10.5,-49.5 10.5,-70.5 23.5,-70.5 23.5,-49.5 10.5,-49.5"/>
<polygon fill="none" stroke="#000000" points="10.5,-49.5 10.5,-70.5 23.5,-70.5 23.5,-49.5 10.5,-49.5"/>
<text text-anchor="start" x="13.5" y="-56.3" font-family="Times,serif" font-size="14.00">3</text>
<polygon fill="plum" stroke="transparent" points="23.5,-49.5 23.5,-70.5 36.5,-70.5 36.5,-49.5 23.5,-49.5"/>
<polygon fill="none" stroke="#000000" points="23.5,-49.5 23.5,-70.5 36.5,-70.5 36.5,-49.5 23.5,-49.5"/>
<text text-anchor="start" x="26.5" y="-56.3" font-family="Times,serif" font-size="14.00">1</text>
<polygon fill="plum" stroke="transparent" points="36.5,-49.5 36.5,-70.5 49.5,-70.5 49.5,-49.5 36.5,-49.5"/>
<polygon fill="none" stroke="#000000" points="36.5,-49.5 36.5,-70.5 49.5,-70.5 49.5,-49.5 36.5,-49.5"/>
<text text-anchor="start" x="39.5" y="-56.3" font-family="Times,serif" font-size="14.00">0</text>
<polygon fill="plum" stroke="transparent" points="49.5,-49.5 49.5,-70.5 83.5,-70.5 83.5,-49.5 49.5,-49.5"/>
<polygon fill="none" stroke="#000000" points="49.5,-49.5 49.5,-70.5 83.5,-70.5 83.5,-49.5 49.5,-49.5"/>
<text text-anchor="start" x="63" y="-56.3" font-family="Times,serif" font-size="14.00">1</text>
<polygon fill="#eea9b8" stroke="transparent" points="10.5,-28.5 10.5,-49.5 23.5,-49.5 23.5,-28.5 10.5,-28.5"/>
<polygon fill="none" stroke="#000000" points="10.5,-28.5 10.5,-49.5 23.5,-49.5 23.5,-28.5 10.5,-28.5"/>
<text text-anchor="start" x="13.5" y="-35.3" font-family="Times,serif" font-size="14.00">4</text>
<polygon fill="#eea9b8" stroke="transparent" points="23.5,-28.5 23.5,-49.5 36.5,-49.5 36.5,-28.5 23.5,-28.5"/>
<polygon fill="none" stroke="#000000" points="23.5,-28.5 23.5,-49.5 36.5,-49.5 36.5,-28.5 23.5,-28.5"/>
<text text-anchor="start" x="26.5" y="-35.3" font-family="Times,serif" font-size="14.00">1</text>
<polygon fill="#eea9b8" stroke="transparent" points="36.5,-28.5 36.5,-49.5 49.5,-49.5 49.5,-28.5 36.5,-28.5"/>
<polygon fill="none" stroke="#000000" points="36.5,-28.5 36.5,-49.5 49.5,-49.5 49.5,-28.5 36.5,-28.5"/>
<text text-anchor="start" x="39.5" y="-35.3" font-family="Times,serif" font-size="14.00">1</text>
<polygon fill="#eea9b8" stroke="transparent" points="49.5,-28.5 49.5,-49.5 83.5,-49.5 83.5,-28.5 49.5,-28.5"/>
<polygon fill="none" stroke="#000000" points="49.5,-28.5 49.5,-49.5 83.5,-49.5 83.5,-28.5 49.5,-28.5"/>
<text text-anchor="start" x="63" y="-35.3" font-family="Times,serif" font-size="14.00">1</text>
<polygon fill="none" stroke="#000000" stroke-width="2" points="9,-28 9,-135 84,-135 84,-28 9,-28"/>
</g>
</g>
</svg>
