<?xml version="1.0" encoding="UTF-8" standalone="no"?>
<!DOCTYPE svg PUBLIC "-//W3C//DTD SVG 1.1//EN"
 "http://www.w3.org/Graphics/SVG/1.1/DTD/svg11.dtd">
<!-- Generated by graphviz version 2.44.1 (20200629.0846)
 -->
<!-- Title: G Pages: 1 -->
<svg width="524pt" height="111pt"
 viewBox="0.00 0.00 523.94 111.20" xmlns="http://www.w3.org/2000/svg" xmlns:xlink="http://www.w3.org/1999/xlink">
<g id="graph0" class="graph" transform="scale(1 1) rotate(0) translate(4 107.2)">
<title>G</title>
<polygon fill="skyblue" stroke="transparent" points="-4,4 -4,-107.2 519.94,-107.2 519.94,4 -4,4"/>
<text text-anchor="middle" x="257.97" y="-7.8" font-family="Times,serif" font-size="14.00">&gt;&gt;&gt; Personas &lt;&lt;&lt;</text>
<!-- a -->
<g id="node1" class="node">
<title>a</title>
<ellipse fill="#0000cd" stroke="#0000cd" cx="36" cy="-63.1" rx="36" ry="36"/>
<text text-anchor="middle" x="36" y="-59.4" font-family="Times,serif" font-size="14.00">Luis</text>
</g>
<!-- b -->
<g id="node2" class="node">
<title>b</title>
<ellipse fill="green" stroke="green" cx="144.94" cy="-63.1" rx="36.87" ry="36.87"/>
<text text-anchor="middle" x="144.94" y="-59.4" font-family="Times,serif" font-size="14.00">Persona 1</text>
</g>
<!-- a&#45;&gt;b -->
<g id="edge1" class="edge">
<title>a&#45;&gt;b</title>
<path fill="none" stroke="black" d="M71.72,-56.73C80.13,-56.38 89.26,-56.27 98.1,-56.41"/>
<polygon fill="black" stroke="black" points="98.2,-59.92 108.29,-56.7 98.39,-52.92 98.2,-59.92"/>
</g>
<!-- b&#45;&gt;a -->
<g id="edge8" class="edge">
<title>b&#45;&gt;a</title>
<path fill="none" stroke="black" d="M108.29,-69.51C99.82,-69.85 90.68,-69.93 81.86,-69.77"/>
<polygon fill="black" stroke="black" points="81.82,-66.27 71.72,-69.47 81.61,-73.27 81.82,-66.27"/>
</g>
<!-- c -->
<g id="node3" class="node">
<title>c</title>
<ellipse fill="green" stroke="green" cx="254.81" cy="-63.1" rx="36.87" ry="36.87"/>
<text text-anchor="middle" x="254.81" y="-59.4" font-family="Times,serif" font-size="14.00">Persona 2</text>
</g>
<!-- b&#45;&gt;c -->
<g id="edge2" class="edge">
<title>b&#45;&gt;c</title>
<path fill="none" stroke="black" d="M181.55,-56.71C190.02,-56.37 199.18,-56.27 208.03,-56.42"/>
<polygon fill="black" stroke="black" points="208.13,-59.92 218.22,-56.71 208.33,-52.93 208.13,-59.92"/>
</g>
<!-- c&#45;&gt;b -->
<g id="edge7" class="edge">
<title>c&#45;&gt;b</title>
<path fill="none" stroke="black" d="M218.22,-69.49C209.76,-69.84 200.6,-69.93 191.75,-69.78"/>
<polygon fill="black" stroke="black" points="191.65,-66.28 181.55,-69.49 191.45,-73.28 191.65,-66.28"/>
</g>
<!-- d -->
<g id="node4" class="node">
<title>d</title>
<ellipse fill="white" stroke="white" cx="367.84" cy="-63.1" rx="40.2" ry="40.2"/>
<text text-anchor="middle" x="367.84" y="-59.4" font-family="Times,serif" font-size="14.00">Disponible</text>
</g>
<!-- c&#45;&gt;d -->
<g id="edge3" class="edge">
<title>c&#45;&gt;d</title>
<path fill="none" stroke="black" d="M291.24,-56.76C299.64,-56.4 308.74,-56.28 317.62,-56.39"/>
<polygon fill="black" stroke="black" points="317.82,-59.9 327.89,-56.63 317.98,-52.9 317.82,-59.9"/>
</g>
<!-- d&#45;&gt;c -->
<g id="edge6" class="edge">
<title>d&#45;&gt;c</title>
<path fill="none" stroke="black" d="M327.89,-69.58C319.32,-69.87 310.17,-69.93 301.37,-69.75"/>
<polygon fill="black" stroke="black" points="301.35,-66.25 291.24,-69.44 301.13,-73.25 301.35,-66.25"/>
</g>
<!-- e -->
<g id="node5" class="node">
<title>e</title>
<ellipse fill="red" stroke="red" cx="479.94" cy="-63.1" rx="36" ry="36"/>
<text text-anchor="middle" x="479.94" y="-59.4" font-family="Times,serif" font-size="14.00">Manuel</text>
</g>
<!-- d&#45;&gt;e -->
<g id="edge4" class="edge">
<title>d&#45;&gt;e</title>
<path fill="none" stroke="black" d="M407.66,-56.62C416.2,-56.33 425.32,-56.27 434.08,-56.45"/>
<polygon fill="black" stroke="black" points="434.04,-59.96 444.14,-56.77 434.26,-52.96 434.04,-59.96"/>
</g>
<!-- e&#45;&gt;d -->
<g id="edge5" class="edge">
<title>e&#45;&gt;d</title>
<path fill="none" stroke="black" d="M444.14,-69.43C435.81,-69.79 426.75,-69.92 417.9,-69.82"/>
<polygon fill="black" stroke="black" points="417.74,-66.31 407.66,-69.58 417.58,-73.31 417.74,-66.31"/>
</g>
</g>
</svg>
