<?xml version="1.0" encoding="UTF-8" standalone="no"?>
<!DOCTYPE svg PUBLIC "-//W3C//DTD SVG 1.1//EN"
 "http://www.w3.org/Graphics/SVG/1.1/DTD/svg11.dtd">
<!-- Generated by graphviz version 2.44.1 (20200629.0846)
 -->
<!-- Title: G Pages: 1 -->
<svg width="360pt" height="283pt"
 viewBox="0.00 0.00 360.00 283.00" xmlns="http://www.w3.org/2000/svg" xmlns:xlink="http://www.w3.org/1999/xlink">
<g id="graph0" class="graph" transform="scale(1 1) rotate(0) translate(4 279)">
<title>G</title>
<polygon fill="skyblue" stroke="transparent" points="-4,4 -4,-279 356,-279 356,4 -4,4"/>
<text text-anchor="middle" x="176" y="-7.8" font-family="Times,serif" font-size="14.00">((( Frutas )))</text>
<!-- n11 -->
<g id="node1" class="node">
<title>n11</title>
<polygon fill="purple" stroke="transparent" points="70,-275 16,-275 16,-239 70,-239 70,-275"/>
<text text-anchor="middle" x="43" y="-253.3" font-family="Times,serif" font-size="14.00">Uvas</text>
</g>
<!-- n12 -->
<g id="node2" class="node">
<title>n12</title>
<polygon fill="purple" stroke="transparent" points="163.5,-275 88.5,-275 88.5,-239 163.5,-239 163.5,-275"/>
<text text-anchor="middle" x="126" y="-253.3" font-family="Times,serif" font-size="14.00">Arandanos</text>
</g>
<!-- n11&#45;&gt;n12 -->
<g id="edge1" class="edge">
<title>n11&#45;&gt;n12</title>
<path fill="none" stroke="black" d="M70.23,-257C72.84,-257 75.44,-257 78.05,-257"/>
<polygon fill="black" stroke="black" points="78.1,-260.5 88.1,-257 78.1,-253.5 78.1,-260.5"/>
</g>
<!-- n21 -->
<g id="node5" class="node">
<title>n21</title>
<polygon fill="red" stroke="transparent" points="72.5,-203 13.5,-203 13.5,-167 72.5,-167 72.5,-203"/>
<text text-anchor="middle" x="43" y="-181.3" font-family="Times,serif" font-size="14.00">Sandias</text>
</g>
<!-- n11&#45;&gt;n21 -->
<g id="edge13" class="edge">
<title>n11&#45;&gt;n21</title>
<path fill="none" stroke="black" d="M43,-238.7C43,-230.98 43,-221.71 43,-213.11"/>
<polygon fill="black" stroke="black" points="46.5,-213.1 43,-203.1 39.5,-213.1 46.5,-213.1"/>
</g>
<!-- n13 -->
<g id="node3" class="node">
<title>n13</title>
<polygon fill="gold" stroke="transparent" points="258,-275 182,-275 182,-239 258,-239 258,-275"/>
<text text-anchor="middle" x="220" y="-253.3" font-family="Times,serif" font-size="14.00">Disponible</text>
</g>
<!-- n12&#45;&gt;n13 -->
<g id="edge2" class="edge">
<title>n12&#45;&gt;n13</title>
<path fill="none" stroke="black" d="M163.82,-257C166.44,-257 169.07,-257 171.69,-257"/>
<polygon fill="black" stroke="black" points="171.82,-260.5 181.82,-257 171.82,-253.5 171.82,-260.5"/>
</g>
<!-- n22 -->
<g id="node6" class="node">
<title>n22</title>
<polygon fill="red" stroke="transparent" points="167,-203 91,-203 91,-167 167,-167 167,-203"/>
<text text-anchor="middle" x="129" y="-181.3" font-family="Times,serif" font-size="14.00">Disponible</text>
</g>
<!-- n12&#45;&gt;n22 -->
<g id="edge16" class="edge">
<title>n12&#45;&gt;n22</title>
<path fill="none" stroke="black" d="M126.74,-238.7C127.07,-230.98 127.47,-221.71 127.84,-213.11"/>
<polygon fill="black" stroke="black" points="131.34,-213.25 128.27,-203.1 124.34,-212.95 131.34,-213.25"/>
</g>
<!-- n14 -->
<g id="node4" class="node">
<title>n14</title>
<polygon fill="gold" stroke="transparent" points="352,-275 276,-275 276,-239 352,-239 352,-275"/>
<text text-anchor="middle" x="314" y="-253.3" font-family="Times,serif" font-size="14.00">Disponible</text>
</g>
<!-- n13&#45;&gt;n14 -->
<g id="edge3" class="edge">
<title>n13&#45;&gt;n14</title>
<path fill="none" stroke="black" d="M258.19,-257C260.64,-257 263.09,-257 265.55,-257"/>
<polygon fill="black" stroke="black" points="265.63,-260.5 275.63,-257 265.63,-253.5 265.63,-260.5"/>
</g>
<!-- n23 -->
<g id="node7" class="node">
<title>n23</title>
<polygon fill="red" stroke="transparent" points="257,-203 185,-203 185,-167 257,-167 257,-203"/>
<text text-anchor="middle" x="221" y="-181.3" font-family="Times,serif" font-size="14.00">Manzanas</text>
</g>
<!-- n13&#45;&gt;n23 -->
<g id="edge19" class="edge">
<title>n13&#45;&gt;n23</title>
<path fill="none" stroke="black" d="M220.25,-238.7C220.36,-230.98 220.49,-221.71 220.61,-213.11"/>
<polygon fill="black" stroke="black" points="224.11,-213.15 220.76,-203.1 217.11,-213.05 224.11,-213.15"/>
</g>
<!-- n24 -->
<g id="node8" class="node">
<title>n24</title>
<polygon fill="gold" stroke="transparent" points="351,-203 275,-203 275,-167 351,-167 351,-203"/>
<text text-anchor="middle" x="313" y="-181.3" font-family="Times,serif" font-size="14.00">Disponible</text>
</g>
<!-- n14&#45;&gt;n24 -->
<g id="edge22" class="edge">
<title>n14&#45;&gt;n24</title>
<path fill="none" stroke="black" d="M313.75,-238.7C313.64,-230.98 313.51,-221.71 313.39,-213.11"/>
<polygon fill="black" stroke="black" points="316.89,-213.05 313.24,-203.1 309.89,-213.15 316.89,-213.05"/>
</g>
<!-- n21&#45;&gt;n22 -->
<g id="edge4" class="edge">
<title>n21&#45;&gt;n22</title>
<path fill="none" stroke="black" d="M72.56,-185C75.2,-185 77.84,-185 80.47,-185"/>
<polygon fill="black" stroke="black" points="80.64,-188.5 90.64,-185 80.64,-181.5 80.64,-188.5"/>
</g>
<!-- n31 -->
<g id="node9" class="node">
<title>n31</title>
<polygon fill="gold" stroke="transparent" points="76,-131 0,-131 0,-95 76,-95 76,-131"/>
<text text-anchor="middle" x="38" y="-109.3" font-family="Times,serif" font-size="14.00">Disponible</text>
</g>
<!-- n21&#45;&gt;n31 -->
<g id="edge14" class="edge">
<title>n21&#45;&gt;n31</title>
<path fill="none" stroke="black" d="M41.76,-166.7C41.21,-158.98 40.55,-149.71 39.94,-141.11"/>
<polygon fill="black" stroke="black" points="43.43,-140.83 39.22,-131.1 36.44,-141.33 43.43,-140.83"/>
</g>
<!-- n22&#45;&gt;n23 -->
<g id="edge5" class="edge">
<title>n22&#45;&gt;n23</title>
<path fill="none" stroke="black" d="M167.09,-185C169.58,-185 172.07,-185 174.56,-185"/>
<polygon fill="black" stroke="black" points="174.78,-188.5 184.78,-185 174.78,-181.5 174.78,-188.5"/>
</g>
<!-- n32 -->
<g id="node10" class="node">
<title>n32</title>
<polygon fill="gold" stroke="transparent" points="170,-131 94,-131 94,-95 170,-95 170,-131"/>
<text text-anchor="middle" x="132" y="-109.3" font-family="Times,serif" font-size="14.00">Disponible</text>
</g>
<!-- n22&#45;&gt;n32 -->
<g id="edge17" class="edge">
<title>n22&#45;&gt;n32</title>
<path fill="none" stroke="black" d="M129.74,-166.7C130.07,-158.98 130.47,-149.71 130.84,-141.11"/>
<polygon fill="black" stroke="black" points="134.34,-141.25 131.27,-131.1 127.34,-140.95 134.34,-141.25"/>
</g>
<!-- n23&#45;&gt;n24 -->
<g id="edge6" class="edge">
<title>n23&#45;&gt;n24</title>
<path fill="none" stroke="black" d="M257.3,-185C259.74,-185 262.19,-185 264.64,-185"/>
<polygon fill="black" stroke="black" points="264.7,-188.5 274.7,-185 264.7,-181.5 264.7,-188.5"/>
</g>
<!-- n33 -->
<g id="node11" class="node">
<title>n33</title>
<polygon fill="gold" stroke="transparent" points="250,-131 196,-131 196,-95 250,-95 250,-131"/>
<text text-anchor="middle" x="223" y="-109.3" font-family="Times,serif" font-size="14.00">Piñas</text>
</g>
<!-- n23&#45;&gt;n33 -->
<g id="edge20" class="edge">
<title>n23&#45;&gt;n33</title>
<path fill="none" stroke="black" d="M221.49,-166.7C221.71,-158.98 221.98,-149.71 222.23,-141.11"/>
<polygon fill="black" stroke="black" points="225.72,-141.2 222.51,-131.1 218.73,-141 225.72,-141.2"/>
</g>
<!-- n34 -->
<g id="node12" class="node">
<title>n34</title>
<polygon fill="gold" stroke="transparent" points="348,-131 272,-131 272,-95 348,-95 348,-131"/>
<text text-anchor="middle" x="310" y="-109.3" font-family="Times,serif" font-size="14.00">Disponible</text>
</g>
<!-- n24&#45;&gt;n34 -->
<g id="edge23" class="edge">
<title>n24&#45;&gt;n34</title>
<path fill="none" stroke="black" d="M312.26,-166.7C311.93,-158.98 311.53,-149.71 311.16,-141.11"/>
<polygon fill="black" stroke="black" points="314.66,-140.95 310.73,-131.1 307.66,-141.25 314.66,-140.95"/>
</g>
<!-- n31&#45;&gt;n32 -->
<g id="edge7" class="edge">
<title>n31&#45;&gt;n32</title>
<path fill="none" stroke="black" d="M76.19,-113C78.64,-113 81.09,-113 83.55,-113"/>
<polygon fill="black" stroke="black" points="83.63,-116.5 93.63,-113 83.63,-109.5 83.63,-116.5"/>
</g>
<!-- n41 -->
<g id="node13" class="node">
<title>n41</title>
<polygon fill="gold" stroke="transparent" points="76,-59 0,-59 0,-23 76,-23 76,-59"/>
<text text-anchor="middle" x="38" y="-37.3" font-family="Times,serif" font-size="14.00">Disponible</text>
</g>
<!-- n31&#45;&gt;n41 -->
<g id="edge15" class="edge">
<title>n31&#45;&gt;n41</title>
<path fill="none" stroke="black" d="M38,-94.7C38,-86.98 38,-77.71 38,-69.11"/>
<polygon fill="black" stroke="black" points="41.5,-69.1 38,-59.1 34.5,-69.1 41.5,-69.1"/>
</g>
<!-- n32&#45;&gt;n33 -->
<g id="edge8" class="edge">
<title>n32&#45;&gt;n33</title>
<path fill="none" stroke="black" d="M170.04,-113C175.25,-113 180.46,-113 185.67,-113"/>
<polygon fill="black" stroke="black" points="185.69,-116.5 195.69,-113 185.69,-109.5 185.69,-116.5"/>
</g>
<!-- n42 -->
<g id="node14" class="node">
<title>n42</title>
<polygon fill="gold" stroke="transparent" points="170,-59 94,-59 94,-23 170,-23 170,-59"/>
<text text-anchor="middle" x="132" y="-37.3" font-family="Times,serif" font-size="14.00">Disponible</text>
</g>
<!-- n32&#45;&gt;n42 -->
<g id="edge18" class="edge">
<title>n32&#45;&gt;n42</title>
<path fill="none" stroke="black" d="M132,-94.7C132,-86.98 132,-77.71 132,-69.11"/>
<polygon fill="black" stroke="black" points="135.5,-69.1 132,-59.1 128.5,-69.1 135.5,-69.1"/>
</g>
<!-- n33&#45;&gt;n34 -->
<g id="edge9" class="edge">
<title>n33&#45;&gt;n34</title>
<path fill="none" stroke="black" d="M250.19,-113C253.99,-113 257.8,-113 261.61,-113"/>
<polygon fill="black" stroke="black" points="261.68,-116.5 271.68,-113 261.68,-109.5 261.68,-116.5"/>
</g>
<!-- n43 -->
<g id="node15" class="node">
<title>n43</title>
<polygon fill="gold" stroke="transparent" points="264,-59 188,-59 188,-23 264,-23 264,-59"/>
<text text-anchor="middle" x="226" y="-37.3" font-family="Times,serif" font-size="14.00">Disponible</text>
</g>
<!-- n33&#45;&gt;n43 -->
<g id="edge21" class="edge">
<title>n33&#45;&gt;n43</title>
<path fill="none" stroke="black" d="M223.74,-94.7C224.07,-86.98 224.47,-77.71 224.84,-69.11"/>
<polygon fill="black" stroke="black" points="228.34,-69.25 225.27,-59.1 221.34,-68.95 228.34,-69.25"/>
</g>
<!-- n44 -->
<g id="node16" class="node">
<title>n44</title>
<polygon fill="orange" stroke="transparent" points="338,-59 282,-59 282,-23 338,-23 338,-59"/>
<text text-anchor="middle" x="310" y="-37.3" font-family="Times,serif" font-size="14.00">Mango</text>
</g>
<!-- n34&#45;&gt;n44 -->
<g id="edge24" class="edge">
<title>n34&#45;&gt;n44</title>
<path fill="none" stroke="black" d="M310,-94.7C310,-86.98 310,-77.71 310,-69.11"/>
<polygon fill="black" stroke="black" points="313.5,-69.1 310,-59.1 306.5,-69.1 313.5,-69.1"/>
</g>
<!-- n41&#45;&gt;n42 -->
<g id="edge10" class="edge">
<title>n41&#45;&gt;n42</title>
<path fill="none" stroke="black" d="M76.19,-41C78.64,-41 81.09,-41 83.55,-41"/>
<polygon fill="black" stroke="black" points="83.63,-44.5 93.63,-41 83.63,-37.5 83.63,-44.5"/>
</g>
<!-- n42&#45;&gt;n43 -->
<g id="edge11" class="edge">
<title>n42&#45;&gt;n43</title>
<path fill="none" stroke="black" d="M170.19,-41C172.64,-41 175.09,-41 177.55,-41"/>
<polygon fill="black" stroke="black" points="177.63,-44.5 187.63,-41 177.63,-37.5 177.63,-44.5"/>
</g>
<!-- n43&#45;&gt;n44 -->
<g id="edge12" class="edge">
<title>n43&#45;&gt;n44</title>
<path fill="none" stroke="black" d="M264.06,-41C266.54,-41 269.01,-41 271.48,-41"/>
<polygon fill="black" stroke="black" points="271.65,-44.5 281.65,-41 271.65,-37.5 271.65,-44.5"/>
</g>
</g>
</svg>
