<?xml version="1.0" encoding="UTF-8" standalone="no"?>
<!DOCTYPE svg PUBLIC "-//W3C//DTD SVG 1.1//EN"
 "http://www.w3.org/Graphics/SVG/1.1/DTD/svg11.dtd">
<!-- Generated by graphviz version 2.44.1 (20200629.0846)
 -->
<!-- Title: G Pages: 1 -->
<svg width="206pt" height="211pt"
 viewBox="0.00 0.00 206.00 211.00" xmlns="http://www.w3.org/2000/svg" xmlns:xlink="http://www.w3.org/1999/xlink">
<g id="graph0" class="graph" transform="scale(1 1) rotate(0) translate(4 207)">
<title>G</title>
<polygon fill="gray" stroke="transparent" points="-4,4 -4,-207 202,-207 202,4 -4,4"/>
<text text-anchor="middle" x="99" y="-7.8" font-family="Times,serif" font-size="14.00">Cara dado rubik!!!</text>
<!-- n11 -->
<g id="node1" class="node">
<title>n11</title>
<polygon fill="red" stroke="transparent" points="54,-203 0,-203 0,-167 54,-167 54,-203"/>
<text text-anchor="middle" x="27" y="-181.3" font-family="Times,serif" font-size="14.00"> &#160;</text>
</g>
<!-- n12 -->
<g id="node2" class="node">
<title>n12</title>
<polygon fill="green" stroke="transparent" points="126,-203 72,-203 72,-167 126,-167 126,-203"/>
<text text-anchor="middle" x="99" y="-181.3" font-family="Times,serif" font-size="14.00"> &#160;</text>
</g>
<!-- n11&#45;&gt;n12 -->
<g id="edge1" class="edge">
<title>n11&#45;&gt;n12</title>
<path fill="none" stroke="black" d="M61.38,-185C62.46,-185 63.54,-185 64.62,-185"/>
<polygon fill="black" stroke="black" points="61.28,-182.55 54.28,-185 61.28,-187.45 61.28,-182.55"/>
<polygon fill="black" stroke="black" points="64.75,-187.45 71.75,-185 64.75,-182.55 64.75,-187.45"/>
</g>
<!-- n21 -->
<g id="node4" class="node">
<title>n21</title>
<polygon fill="deepskyblue" stroke="transparent" points="54,-131 0,-131 0,-95 54,-95 54,-131"/>
<text text-anchor="middle" x="27" y="-109.3" font-family="Times,serif" font-size="14.00"> &#160;</text>
</g>
<!-- n11&#45;&gt;n21 -->
<g id="edge7" class="edge">
<title>n11&#45;&gt;n21</title>
<path fill="none" stroke="black" d="M27,-159.48C27,-152.6 27,-145.12 27,-138.26"/>
<polygon fill="black" stroke="black" points="24.55,-159.7 27,-166.7 29.45,-159.7 24.55,-159.7"/>
<polygon fill="black" stroke="black" points="29.45,-138.1 27,-131.1 24.55,-138.1 29.45,-138.1"/>
</g>
<!-- n13 -->
<g id="node3" class="node">
<title>n13</title>
<polygon fill="white" stroke="transparent" points="198,-203 144,-203 144,-167 198,-167 198,-203"/>
<text text-anchor="middle" x="171" y="-181.3" font-family="Times,serif" font-size="14.00"> &#160;</text>
</g>
<!-- n12&#45;&gt;n13 -->
<g id="edge2" class="edge">
<title>n12&#45;&gt;n13</title>
<path fill="none" stroke="black" d="M133.38,-185C134.46,-185 135.54,-185 136.62,-185"/>
<polygon fill="black" stroke="black" points="133.28,-182.55 126.28,-185 133.28,-187.45 133.28,-182.55"/>
<polygon fill="black" stroke="black" points="136.75,-187.45 143.75,-185 136.75,-182.55 136.75,-187.45"/>
</g>
<!-- n22 -->
<g id="node5" class="node">
<title>n22</title>
<polygon fill="red" stroke="transparent" points="126,-131 72,-131 72,-95 126,-95 126,-131"/>
<text text-anchor="middle" x="99" y="-109.3" font-family="Times,serif" font-size="14.00"> &#160;</text>
</g>
<!-- n12&#45;&gt;n22 -->
<g id="edge9" class="edge">
<title>n12&#45;&gt;n22</title>
<path fill="none" stroke="black" d="M99,-159.48C99,-152.6 99,-145.12 99,-138.26"/>
<polygon fill="black" stroke="black" points="96.55,-159.7 99,-166.7 101.45,-159.7 96.55,-159.7"/>
<polygon fill="black" stroke="black" points="101.45,-138.1 99,-131.1 96.55,-138.1 101.45,-138.1"/>
</g>
<!-- n23 -->
<g id="node6" class="node">
<title>n23</title>
<polygon fill="deepskyblue" stroke="transparent" points="198,-131 144,-131 144,-95 198,-95 198,-131"/>
<text text-anchor="middle" x="171" y="-109.3" font-family="Times,serif" font-size="14.00"> &#160;</text>
</g>
<!-- n13&#45;&gt;n23 -->
<g id="edge11" class="edge">
<title>n13&#45;&gt;n23</title>
<path fill="none" stroke="black" d="M171,-159.48C171,-152.6 171,-145.12 171,-138.26"/>
<polygon fill="black" stroke="black" points="168.55,-159.7 171,-166.7 173.45,-159.7 168.55,-159.7"/>
<polygon fill="black" stroke="black" points="173.45,-138.1 171,-131.1 168.55,-138.1 173.45,-138.1"/>
</g>
<!-- n21&#45;&gt;n22 -->
<g id="edge3" class="edge">
<title>n21&#45;&gt;n22</title>
<path fill="none" stroke="black" d="M61.38,-113C62.46,-113 63.54,-113 64.62,-113"/>
<polygon fill="black" stroke="black" points="61.28,-110.55 54.28,-113 61.28,-115.45 61.28,-110.55"/>
<polygon fill="black" stroke="black" points="64.75,-115.45 71.75,-113 64.75,-110.55 64.75,-115.45"/>
</g>
<!-- n31 -->
<g id="node7" class="node">
<title>n31</title>
<polygon fill="orange" stroke="transparent" points="54,-59 0,-59 0,-23 54,-23 54,-59"/>
<text text-anchor="middle" x="27" y="-37.3" font-family="Times,serif" font-size="14.00"> &#160;</text>
</g>
<!-- n21&#45;&gt;n31 -->
<g id="edge8" class="edge">
<title>n21&#45;&gt;n31</title>
<path fill="none" stroke="black" d="M27,-87.48C27,-80.6 27,-73.12 27,-66.26"/>
<polygon fill="black" stroke="black" points="24.55,-87.7 27,-94.7 29.45,-87.7 24.55,-87.7"/>
<polygon fill="black" stroke="black" points="29.45,-66.1 27,-59.1 24.55,-66.1 29.45,-66.1"/>
</g>
<!-- n22&#45;&gt;n23 -->
<g id="edge4" class="edge">
<title>n22&#45;&gt;n23</title>
<path fill="none" stroke="black" d="M133.38,-113C134.46,-113 135.54,-113 136.62,-113"/>
<polygon fill="black" stroke="black" points="133.28,-110.55 126.28,-113 133.28,-115.45 133.28,-110.55"/>
<polygon fill="black" stroke="black" points="136.75,-115.45 143.75,-113 136.75,-110.55 136.75,-115.45"/>
</g>
<!-- n32 -->
<g id="node8" class="node">
<title>n32</title>
<polygon fill="gold" stroke="transparent" points="126,-59 72,-59 72,-23 126,-23 126,-59"/>
<text text-anchor="middle" x="99" y="-37.3" font-family="Times,serif" font-size="14.00"> &#160;</text>
</g>
<!-- n22&#45;&gt;n32 -->
<g id="edge10" class="edge">
<title>n22&#45;&gt;n32</title>
<path fill="none" stroke="black" d="M99,-87.48C99,-80.6 99,-73.12 99,-66.26"/>
<polygon fill="black" stroke="black" points="96.55,-87.7 99,-94.7 101.45,-87.7 96.55,-87.7"/>
<polygon fill="black" stroke="black" points="101.45,-66.1 99,-59.1 96.55,-66.1 101.45,-66.1"/>
</g>
<!-- n33 -->
<g id="node9" class="node">
<title>n33</title>
<polygon fill="green" stroke="transparent" points="198,-59 144,-59 144,-23 198,-23 198,-59"/>
<text text-anchor="middle" x="171" y="-37.3" font-family="Times,serif" font-size="14.00"> &#160;</text>
</g>
<!-- n23&#45;&gt;n33 -->
<g id="edge12" class="edge">
<title>n23&#45;&gt;n33</title>
<path fill="none" stroke="black" d="M171,-87.48C171,-80.6 171,-73.12 171,-66.26"/>
<polygon fill="black" stroke="black" points="168.55,-87.7 171,-94.7 173.45,-87.7 168.55,-87.7"/>
<polygon fill="black" stroke="black" points="173.45,-66.1 171,-59.1 168.55,-66.1 173.45,-66.1"/>
</g>
<!-- n31&#45;&gt;n32 -->
<g id="edge5" class="edge">
<title>n31&#45;&gt;n32</title>
<path fill="none" stroke="black" d="M61.38,-41C62.46,-41 63.54,-41 64.62,-41"/>
<polygon fill="black" stroke="black" points="61.28,-38.55 54.28,-41 61.28,-43.45 61.28,-38.55"/>
<polygon fill="black" stroke="black" points="64.75,-43.45 71.75,-41 64.75,-38.55 64.75,-43.45"/>
</g>
<!-- n32&#45;&gt;n33 -->
<g id="edge6" class="edge">
<title>n32&#45;&gt;n33</title>
<path fill="none" stroke="black" d="M133.38,-41C134.46,-41 135.54,-41 136.62,-41"/>
<polygon fill="black" stroke="black" points="133.28,-38.55 126.28,-41 133.28,-43.45 133.28,-38.55"/>
<polygon fill="black" stroke="black" points="136.75,-43.45 143.75,-41 136.75,-38.55 136.75,-43.45"/>
</g>
</g>
</svg>
