<?xml version="1.0" encoding="UTF-8" standalone="no"?>
<!DOCTYPE svg PUBLIC "-//W3C//DTD SVG 1.1//EN"
 "http://www.w3.org/Graphics/SVG/1.1/DTD/svg11.dtd">
<!-- Generated by graphviz version 2.44.1 (20200629.0846)
 -->
<!-- Title: tabla Pages: 1 -->
<svg width="356pt" height="169pt"
 viewBox="0.00 0.00 356.00 169.00" xmlns="http://www.w3.org/2000/svg" xmlns:xlink="http://www.w3.org/1999/xlink">
<g id="graph0" class="graph" transform="scale(1 1) rotate(0) translate(4 165)">
<title>tabla</title>
<polygon fill="skyblue" stroke="transparent" points="-4,4 -4,-165 352,-165 352,4 -4,4"/>
<text text-anchor="middle" x="174" y="-7.8" font-family="Times,serif" font-size="14.00">** Equipos **</text>
<!-- node0 -->
<g id="node1" class="node">
<title>node0</title>
<polygon fill="gold" stroke="transparent" points="10,-134 10,-155 23,-155 23,-134 10,-134"/>
<polygon fill="none" stroke="#000000" points="10,-134 10,-155 23,-155 23,-134 10,-134"/>
<text text-anchor="start" x="13" y="-140.8" font-family="Times,serif" font-size="14.00">#</text>
<polygon fill="gold" stroke="transparent" points="23,-134 23,-155 139,-155 139,-134 23,-134"/>
<polygon fill="none" stroke="#000000" points="23,-134 23,-155 139,-155 139,-134 23,-134"/>
<text text-anchor="start" x="26" y="-140.8" font-family="Times,serif" font-size="14.00">Nombre del equipo </text>
<polygon fill="gold" stroke="transparent" points="139,-134 139,-155 231,-155 231,-134 139,-134"/>
<polygon fill="none" stroke="#000000" points="139,-134 139,-155 231,-155 231,-134 139,-134"/>
<text text-anchor="start" x="142" y="-140.8" font-family="Times,serif" font-size="14.00">Color Asignado</text>
<polygon fill="gold" stroke="transparent" points="231,-134 231,-155 338,-155 338,-134 231,-134"/>
<polygon fill="none" stroke="#000000" points="231,-134 231,-155 338,-155 338,-134 231,-134"/>
<text text-anchor="start" x="234" y="-140.8" font-family="Times,serif" font-size="14.00">No. de Integrantes</text>
<polygon fill="blue" stroke="transparent" points="10,-113 10,-134 23,-134 23,-113 10,-113"/>
<polygon fill="none" stroke="#000000" points="10,-113 10,-134 23,-134 23,-113 10,-113"/>
<text text-anchor="start" x="13" y="-119.8" font-family="Times,serif" font-size="14.00">1</text>
<polygon fill="blue" stroke="transparent" points="23,-113 23,-134 139,-134 139,-113 23,-113"/>
<polygon fill="none" stroke="#000000" points="23,-113 23,-134 139,-134 139,-113 23,-113"/>
<text text-anchor="start" x="56" y="-119.8" font-family="Times,serif" font-size="14.00">Equipo 1</text>
<polygon fill="blue" stroke="transparent" points="139,-113 139,-134 231,-134 231,-113 139,-113"/>
<polygon fill="none" stroke="#000000" points="139,-113 139,-134 231,-134 231,-113 139,-113"/>
<text text-anchor="start" x="171.5" y="-119.8" font-family="Times,serif" font-size="14.00">Azul</text>
<polygon fill="blue" stroke="transparent" points="231,-113 231,-134 338,-134 338,-113 231,-113"/>
<polygon fill="none" stroke="#000000" points="231,-113 231,-134 338,-134 338,-113 231,-113"/>
<text text-anchor="start" x="281" y="-119.8" font-family="Times,serif" font-size="14.00">7</text>
<polygon fill="Darkgray" stroke="transparent" points="10,-92 10,-113 23,-113 23,-92 10,-92"/>
<polygon fill="none" stroke="#000000" points="10,-92 10,-113 23,-113 23,-92 10,-92"/>
<text text-anchor="start" x="13" y="-98.8" font-family="Times,serif" font-size="14.00">2</text>
<polygon fill="Darkgray" stroke="transparent" points="23,-92 23,-113 139,-113 139,-92 23,-92"/>
<polygon fill="none" stroke="#000000" points="23,-92 23,-113 139,-113 139,-92 23,-92"/>
<text text-anchor="start" x="51" y="-98.8" font-family="Times,serif" font-size="14.00">Disponible</text>
<polygon fill="Darkgray" stroke="transparent" points="139,-92 139,-113 231,-113 231,-92 139,-92"/>
<polygon fill="none" stroke="#000000" points="139,-92 139,-113 231,-113 231,-92 139,-92"/>
<text text-anchor="start" x="178" y="-98.8" font-family="Times,serif" font-size="14.00">&#45;&#45;&#45;</text>
<polygon fill="Darkgray" stroke="transparent" points="231,-92 231,-113 338,-113 338,-92 231,-92"/>
<polygon fill="none" stroke="#000000" points="231,-92 231,-113 338,-113 338,-92 231,-92"/>
<text text-anchor="start" x="277.5" y="-98.8" font-family="Times,serif" font-size="14.00">&#45;&#45;&#45;</text>
<polygon fill="red" stroke="transparent" points="10,-71 10,-92 23,-92 23,-71 10,-71"/>
<polygon fill="none" stroke="#000000" points="10,-71 10,-92 23,-92 23,-71 10,-71"/>
<text text-anchor="start" x="13" y="-77.8" font-family="Times,serif" font-size="14.00">3</text>
<polygon fill="red" stroke="transparent" points="23,-71 23,-92 139,-92 139,-71 23,-71"/>
<polygon fill="none" stroke="#000000" points="23,-71 23,-92 139,-92 139,-71 23,-71"/>
<text text-anchor="start" x="56" y="-77.8" font-family="Times,serif" font-size="14.00">Equipo 3</text>
<polygon fill="red" stroke="transparent" points="139,-71 139,-92 231,-92 231,-71 139,-71"/>
<polygon fill="none" stroke="#000000" points="139,-71 139,-92 231,-92 231,-71 139,-71"/>
<text text-anchor="start" x="169.5" y="-77.8" font-family="Times,serif" font-size="14.00"> Rojo</text>
<polygon fill="red" stroke="transparent" points="231,-71 231,-92 338,-92 338,-71 231,-71"/>
<polygon fill="none" stroke="#000000" points="231,-71 231,-92 338,-92 338,-71 231,-71"/>
<text text-anchor="start" x="277.5" y="-77.8" font-family="Times,serif" font-size="14.00">&#45;&#45;&#45;</text>
<polygon fill="Darkgray" stroke="transparent" points="10,-50 10,-71 23,-71 23,-50 10,-50"/>
<polygon fill="none" stroke="#000000" points="10,-50 10,-71 23,-71 23,-50 10,-50"/>
<text text-anchor="start" x="13" y="-56.8" font-family="Times,serif" font-size="14.00">4</text>
<polygon fill="Darkgray" stroke="transparent" points="23,-50 23,-71 139,-71 139,-50 23,-50"/>
<polygon fill="none" stroke="#000000" points="23,-50 23,-71 139,-71 139,-50 23,-50"/>
<text text-anchor="start" x="56" y="-56.8" font-family="Times,serif" font-size="14.00">Equipo 4</text>
<polygon fill="Darkgray" stroke="transparent" points="139,-50 139,-71 231,-71 231,-50 139,-50"/>
<polygon fill="none" stroke="#000000" points="139,-50 139,-71 231,-71 231,-50 139,-50"/>
<text text-anchor="start" x="178" y="-56.8" font-family="Times,serif" font-size="14.00">&#45;&#45;&#45;</text>
<polygon fill="Darkgray" stroke="transparent" points="231,-50 231,-71 338,-71 338,-50 231,-50"/>
<polygon fill="none" stroke="#000000" points="231,-50 231,-71 338,-71 338,-50 231,-50"/>
<text text-anchor="start" x="281" y="-56.8" font-family="Times,serif" font-size="14.00">6</text>
<polygon fill="Darkgray" stroke="transparent" points="10,-29 10,-50 23,-50 23,-29 10,-29"/>
<polygon fill="none" stroke="#000000" points="10,-29 10,-50 23,-50 23,-29 10,-29"/>
<text text-anchor="start" x="13" y="-35.8" font-family="Times,serif" font-size="14.00">5</text>
<polygon fill="Darkgray" stroke="transparent" points="23,-29 23,-50 139,-50 139,-29 23,-29"/>
<polygon fill="none" stroke="#000000" points="23,-29 23,-50 139,-50 139,-29 23,-29"/>
<text text-anchor="start" x="74" y="-35.8" font-family="Times,serif" font-size="14.00">&#45;&#45;&#45;</text>
<polygon fill="Darkgray" stroke="transparent" points="139,-29 139,-50 231,-50 231,-29 139,-29"/>
<polygon fill="none" stroke="#000000" points="139,-29 139,-50 231,-50 231,-29 139,-29"/>
<text text-anchor="start" x="178" y="-35.8" font-family="Times,serif" font-size="14.00">&#45;&#45;&#45;</text>
<polygon fill="Darkgray" stroke="transparent" points="231,-29 231,-50 338,-50 338,-29 231,-29"/>
<polygon fill="none" stroke="#000000" points="231,-29 231,-50 338,-50 338,-29 231,-29"/>
<text text-anchor="start" x="277.5" y="-35.8" font-family="Times,serif" font-size="14.00">&#45;&#45;&#45;</text>
<polygon fill="none" stroke="#000000" stroke-width="2" points="9,-28 9,-156 339,-156 339,-28 9,-28"/>
</g>
</g>
</svg>
